<svg width="378" height="104" viewBox="0 0 378 104" fill="none" xmlns="http://www.w3.org/2000/svg">
<path d="M280.763 32.1369L270.473 14.5719H279.919L284.702 24.5402H284.943L290.128 14.5719H299.212L288.842 31.8958V42.467H280.763V32.1369Z" fill="#0A1E4A"/>
<path d="M255.281 42.8689C253.325 42.8689 251.57 42.7215 250.016 42.4268C248.462 42.132 247.149 41.6229 246.077 40.8994C245.005 40.1491 244.174 39.1442 243.585 37.8848C243.022 36.5985 242.741 34.9774 242.741 33.0212V14.5719H250.739V32.4585C250.739 32.914 250.793 33.3562 250.9 33.7849C251.007 34.2137 251.222 34.6022 251.543 34.9506C251.892 35.2721 252.361 35.5401 252.95 35.7545C253.54 35.942 254.317 36.0358 255.281 36.0358C256.273 36.0358 257.063 35.9286 257.653 35.7143C258.269 35.4731 258.738 35.1783 259.06 34.83C259.408 34.4548 259.636 34.0663 259.743 33.6643C259.85 33.2356 259.904 32.8337 259.904 32.4585V14.5719H267.862V33.0212C267.862 34.7898 267.568 36.3038 266.978 37.5632C266.415 38.8227 265.585 39.8409 264.486 40.618C263.414 41.3951 262.101 41.9712 260.547 42.3464C258.993 42.6947 257.238 42.8689 255.281 42.8689Z" fill="#0A1E4A"/>
<path d="M215.973 14.5719H226.384C228.581 14.5719 230.403 14.7327 231.85 15.0542C233.297 15.3758 234.449 15.8581 235.307 16.5012C236.164 17.1176 236.767 17.9081 237.116 18.8727C237.464 19.8106 237.638 20.9092 237.638 22.1687C237.638 23.6157 237.343 24.8081 236.754 25.746C236.164 26.6571 235.106 27.327 233.579 27.7557V27.9165C235.026 28.372 236.178 29.0956 237.035 30.087C237.92 31.0785 238.362 32.4987 238.362 34.3476C238.362 35.6071 238.187 36.7459 237.839 37.7642C237.518 38.7557 236.928 39.5997 236.071 40.2965C235.24 40.9932 234.101 41.5291 232.654 41.9042C231.234 42.2794 229.438 42.467 227.268 42.467H215.973V14.5719ZM225.459 25.545C226.96 25.545 228.032 25.411 228.675 25.1431C229.345 24.8483 229.68 24.1784 229.68 23.1334C229.68 22.1419 229.345 21.5122 228.675 21.2442C228.032 20.9762 226.96 20.8423 225.459 20.8423H223.972V25.545H225.459ZM226.062 36.1564C226.866 36.1564 227.536 36.1296 228.072 36.076C228.635 35.9956 229.077 35.8616 229.398 35.6741C229.72 35.4865 229.948 35.2319 230.082 34.9104C230.216 34.5888 230.283 34.1869 230.283 33.7045C230.283 33.2222 230.216 32.8203 230.082 32.4987C229.948 32.1503 229.72 31.8824 229.398 31.6948C229.077 31.4804 228.648 31.3331 228.112 31.2527C227.576 31.1455 226.893 31.0919 226.062 31.0919H223.972V36.1564H226.062Z" fill="#0A1E4A"/>
<path d="M201.374 42.8689C199.123 42.8689 197.113 42.6679 195.345 42.266C193.603 41.864 192.116 41.1405 190.883 40.0955C189.677 39.0236 188.753 37.5632 188.11 35.7142C187.466 33.8385 187.145 31.4402 187.145 28.5194C187.145 25.8398 187.48 23.5889 188.15 21.7667C188.82 19.9178 189.771 18.4306 191.004 17.3051C192.236 16.1797 193.737 15.3758 195.505 14.8934C197.274 14.4111 199.257 14.1699 201.454 14.1699C202.124 14.1699 202.821 14.1967 203.544 14.2503C204.268 14.3039 204.965 14.3709 205.634 14.4513C206.331 14.5317 206.974 14.6255 207.564 14.7326C208.153 14.8398 208.662 14.9604 209.091 15.0944V22.0481C207.966 21.6729 206.787 21.3916 205.554 21.204C204.348 21.0164 203.209 20.9226 202.138 20.9226C200.958 20.9226 199.98 21.0566 199.203 21.3246C198.426 21.5925 197.796 22.0347 197.314 22.651C196.832 23.2405 196.483 24.0176 196.269 24.9823C196.082 25.9469 195.988 27.126 195.988 28.5194C195.988 29.9664 196.055 31.1856 196.189 32.1771C196.323 33.1686 196.591 33.9725 196.993 34.5888C197.421 35.1783 198.011 35.6071 198.761 35.875C199.538 36.1162 200.543 36.2368 201.776 36.2368C202.312 36.2368 202.66 36.2368 202.821 36.2368C203.008 36.2368 203.25 36.2234 203.544 36.1966V32.1369H199.444V25.4646H210.9V41.5827C210.364 41.7434 209.721 41.9042 208.971 42.065C208.247 42.2258 207.457 42.3597 206.599 42.4669C205.768 42.6009 204.898 42.6947 203.986 42.7483C203.075 42.8287 202.205 42.8689 201.374 42.8689Z" fill="#0A1E4A"/>
<path d="M156.663 14.5719H168.721L174.509 32.0566H174.75V14.5719H182.548V42.467H171.414L164.782 23.8167H164.541V42.467H156.663V14.5719Z" fill="#0A1E4A"/>
<path d="M143.778 36.5985H133.327L131.358 42.467H122.997L133.247 14.5719H144.059L154.229 42.467H145.707L143.778 36.5985ZM141.688 30.1674L138.834 21.4452H138.352L135.458 30.1674H141.688Z" fill="#0A1E4A"/>
<path d="M125.559 21.5658H118.886V42.467H110.928V21.5658H104.296V14.5719H125.559V21.5658Z" fill="#0A1E4A"/>
<rect x="8" y="8" width="88" height="88" rx="17.1591" fill="url(#paint0_linear_930_10568)"/>
<path opacity="0.1" d="M68.8171 24.4248C69.1057 23.8418 69.7951 23.5608 70.4173 23.794C71.0808 24.0429 71.4169 24.7825 71.1682 25.4461L71.0189 25.834C67.8231 33.9408 60.5595 39.7216 51.9858 39.7217C43.3038 39.7217 35.9648 33.7935 32.8335 25.5253C32.5825 24.8626 32.9158 24.1219 33.5785 23.8708C34.2414 23.6198 34.982 23.9539 35.233 24.6167C38.0548 32.0671 44.551 37.1553 51.9858 37.1553C59.4443 37.1552 65.9576 32.034 68.7645 24.545L68.8171 24.4248Z" fill="black"/>
<path d="M69.9649 18.9951C71.9898 18.9953 73.631 20.6372 73.631 22.6621C73.6307 24.6292 72.0817 26.2333 70.1368 26.3232C66.6044 33.3809 59.8472 38.2431 51.9854 38.2432C44.1229 38.243 37.3621 33.3811 33.8302 26.3223C31.8947 26.2222 30.3558 24.6224 30.3556 22.6621C30.3556 20.6371 31.9975 18.9951 34.0226 18.9951C36.0475 18.9953 37.6886 20.6372 37.6886 22.6621C37.6884 23.8223 37.1489 24.8557 36.3077 25.5273C39.5114 31.6543 45.3762 35.6766 51.9854 35.6768C58.5977 35.6767 64.4645 31.6502 67.6671 25.5186C66.8324 24.8467 66.2981 23.817 66.2979 22.6621C66.2979 20.6371 67.9399 18.9951 69.9649 18.9951ZM69.9649 20.4619C68.7499 20.4619 67.7647 21.4471 67.7647 22.6621C67.7649 23.2273 67.9798 23.7412 68.3302 24.1309C68.4823 23.7814 68.6295 23.4272 68.7647 23.0664L68.8175 22.9463C69.1061 22.3636 69.795 22.0825 70.4171 22.3154C71.0805 22.5643 71.4168 23.3042 71.1681 23.9678L71.0186 24.3555C70.9792 24.4556 70.9353 24.5539 70.8946 24.6533C71.6442 24.3026 72.1649 23.5441 72.1651 22.6621C72.1651 21.4472 71.1798 20.4621 69.9649 20.4619ZM34.0226 20.4619C32.8075 20.4619 31.8224 21.4471 31.8224 22.6621C31.8226 23.5355 32.3327 24.2884 33.0704 24.6436C32.9896 24.4459 32.909 24.2474 32.8331 24.0469C32.5823 23.3843 32.9159 22.6438 33.5782 22.3926C34.241 22.1416 34.9825 22.4758 35.2335 23.1387C35.3624 23.4789 35.5007 23.8134 35.6446 24.1436C36.0022 23.7524 36.2226 23.2337 36.2227 22.6621C36.2227 21.4472 35.2375 20.4621 34.0226 20.4619Z" fill="white"/>
<path d="M71.0194 75.1995L75.288 69.8948L74.1571 68.761H81.2196L72.9491 79.0364L72.954 79.0452H72.9413L72.16 85.6047H67.1425L67.9237 79.0452L67.9305 79.0364L63.7108 70.6467L61.83 68.761H67.7802L71.0194 75.1995ZM40.3876 68.761C41.181 68.761 41.8241 69.4041 41.8241 70.1975V70.2083H41.8309L41.371 74.9417C41.2818 75.8586 40.5699 76.5772 39.6786 76.6946C40.3593 77.0013 40.8329 77.6856 40.8329 78.4807C40.8329 78.5817 40.825 78.6827 40.8094 78.7825L40.2274 82.5159L40.2323 82.5168L40.0175 84.1633C39.9241 84.8778 39.3151 85.4122 38.5946 85.4124H25.7655C24.9723 85.4122 24.329 84.7691 24.329 83.9758C24.329 83.9143 24.3328 83.8523 24.3407 83.7913L26.0477 70.5764L24.2372 68.761H40.3876ZM48.6337 82.5159H54.3915L55.9266 70.6301L54.0624 68.761H61.1864L59.036 85.4124H44.8759C44.0826 85.4123 43.4394 84.7691 43.4393 83.9758C43.4393 83.9143 43.4432 83.8523 43.451 83.7913L45.1512 70.6223L43.2948 68.761H50.41L48.6337 82.5159ZM29.5233 82.5159H35.2352L35.8993 78.2571H30.0731L29.5233 82.5159ZM30.4471 75.3616H36.3378L36.6971 71.6565H30.9257L30.4471 75.3616ZM34.4745 50.8577L28.0555 50.8567L26.2792 64.6135H21.2616L23.038 50.8567L16.9374 50.8577L17.3153 47.9612H34.8524L34.4745 50.8577ZM49.2196 64.6135H44.9188L44.3114 59.9075H37.8827L35.9579 64.6135H30.9403L37.1249 49.4915L35.5995 47.9612H47.0692L49.2196 64.6135ZM56.744 47.967C57.215 48.0082 57.6394 48.2793 57.8729 48.6965L63.576 58.8889L64.9882 47.9612H68.9305L66.7802 64.6135H62.8378L56.1395 52.6448L54.5936 64.6135H50.6512L52.5546 49.8713L50.6512 47.9612H56.744V47.967ZM85.5468 47.9612C86.34 47.9612 86.9831 48.6045 86.9833 49.3977C86.9833 49.4599 86.9796 49.5225 86.9716 49.5842L86.8046 50.8577H86.8114L86.4335 53.7532H81.4413L81.8192 50.8577L76.0848 50.8567L74.6825 61.717H80.4022L80.7714 58.8079L78.9677 55.925H86.1307L85.7635 58.8079L85.7723 58.8215L85.7626 58.8206L85.3934 61.717L85.0126 64.6135H70.9247C70.1313 64.6135 69.4882 63.9694 69.4882 63.176C69.4882 63.1146 69.492 63.0533 69.4999 62.9924L71.2792 49.2141C71.3633 48.5624 71.8759 48.0593 72.5116 47.9739L72.5135 47.9612H85.5468ZM39.0673 57.011H43.9374L43.1425 50.8567H41.5839L39.0673 57.011Z" fill="white"/>
<path d="M370.619 63.5915V86.8217C370.619 88.5737 370.384 90.1537 369.915 91.5616C369.445 92.9694 368.632 94.174 367.474 95.1751C366.317 96.1763 364.752 96.9428 362.781 97.4747C360.81 98.0378 358.323 98.3194 355.32 98.3194C354.725 98.3194 354.084 98.3038 353.395 98.2725C352.707 98.2412 352.003 98.1943 351.284 98.1317C350.595 98.1004 349.907 98.0378 349.219 97.944C348.53 97.8814 347.889 97.8032 347.295 97.7093V90.8107C348.296 91.061 349.453 91.2643 350.767 91.4208C352.081 91.6085 353.286 91.7023 354.381 91.7023C355.726 91.7023 356.868 91.6241 357.807 91.4677C358.745 91.3425 359.512 91.0923 360.106 90.7168C360.701 90.3414 361.123 89.8252 361.373 89.1681C361.655 88.5111 361.796 87.682 361.796 86.6809V86.0239C361.295 86.9312 360.497 87.6508 359.402 88.1826C358.307 88.6832 356.696 88.9335 354.569 88.9335C352.566 88.9335 350.908 88.6206 349.594 87.9949C348.311 87.3692 347.279 86.4932 346.497 85.3669C345.746 84.2405 345.214 82.8952 344.901 81.3309C344.62 79.7353 344.479 77.9676 344.479 76.0279C344.479 74.3071 344.62 72.6646 344.901 71.1003C345.214 69.536 345.746 68.1594 346.497 66.9705C347.279 65.7816 348.311 64.843 349.594 64.1547C350.908 63.4664 352.566 63.1223 354.569 63.1223C356.727 63.1223 358.339 63.3413 359.402 63.7793C360.497 64.186 361.295 64.8586 361.796 65.7972V63.5915H370.619ZM357.666 82.7857C358.73 82.7857 359.559 82.6449 360.153 82.3634C360.779 82.0505 361.233 81.6125 361.514 81.0493C361.827 80.4549 362.015 79.7353 362.077 78.8906C362.171 78.0458 362.218 77.0916 362.218 76.0279C362.218 74.9954 362.171 74.0881 362.077 73.306C362.015 72.4925 361.827 71.8042 361.514 71.2411C361.233 70.6779 360.779 70.2555 360.153 69.974C359.559 69.6611 358.73 69.5047 357.666 69.5047C356.759 69.5047 356.023 69.6924 355.46 70.0678C354.928 70.412 354.506 70.8813 354.193 71.4757C353.912 72.0702 353.724 72.7741 353.63 73.5875C353.536 74.3697 353.489 75.1831 353.489 76.0279C353.489 76.9352 353.536 77.8112 353.63 78.6559C353.724 79.4694 353.912 80.189 354.193 80.8147C354.506 81.4091 354.928 81.8941 355.46 82.2695C356.023 82.6137 356.759 82.7857 357.666 82.7857Z" fill="#0A1E4A"/>
<path d="M331.883 63.1223C334.856 63.1223 336.983 63.8106 338.266 65.1872C339.549 66.5325 340.19 68.7382 340.19 71.8042V88.9335H331.273V73.8222C331.273 73.04 331.211 72.4143 331.086 71.945C330.992 71.4444 330.804 71.069 330.522 70.8187C330.241 70.5684 329.865 70.3963 329.396 70.3025C328.927 70.2086 328.348 70.1617 327.66 70.1617C326.533 70.1617 325.689 70.3494 325.126 70.7248C324.594 71.1003 324.234 71.6009 324.046 72.2266V88.9335H315.13V63.5915H324.046V66.1727C324.672 65.2967 325.61 64.5771 326.862 64.0139C328.145 63.4195 329.818 63.1223 331.883 63.1223Z" fill="#0A1E4A"/>
<path d="M300.872 63.5916H309.789V88.9335H300.872V63.5916Z" fill="#0A1E4A"/>
<path d="M289.562 89.4028C287.497 89.4028 285.651 89.2151 284.024 88.8396C282.398 88.4329 281.021 87.7446 279.895 86.7747C278.768 85.7736 277.908 84.4283 277.313 82.7388C276.719 81.0181 276.422 78.8593 276.422 76.2625C276.422 73.6658 276.719 71.5226 277.313 69.8332C277.908 68.1124 278.768 66.7671 279.895 65.7972C281.021 64.7961 282.398 64.1078 284.024 63.7323C285.651 63.3256 287.497 63.1223 289.562 63.1223C290.688 63.1223 291.83 63.1848 292.988 63.31C294.177 63.4038 295.194 63.5759 296.038 63.8262V71.0533C295.194 70.7405 294.38 70.5371 293.598 70.4433C292.816 70.3181 291.987 70.2555 291.111 70.2555C290.203 70.2555 289.39 70.3494 288.67 70.5371C287.982 70.7248 287.388 71.0533 286.887 71.5226C286.418 71.9606 286.058 72.5707 285.808 73.3529C285.557 74.1038 285.432 75.0736 285.432 76.2625C285.432 77.4514 285.557 78.4369 285.808 79.2191C286.058 79.97 286.418 80.5644 286.887 81.0024C287.388 81.4404 287.998 81.7533 288.717 81.941C289.468 82.0974 290.329 82.1756 291.298 82.1756C292.112 82.1756 292.925 82.1287 293.739 82.0349C294.584 81.9097 295.46 81.6751 296.367 81.3309V88.4173C295.991 88.5737 295.538 88.7145 295.006 88.8396C294.474 88.9335 293.895 89.0274 293.27 89.1212C292.675 89.2151 292.049 89.2776 291.392 89.3089C290.767 89.3715 290.157 89.4028 289.562 89.4028Z" fill="#0A1E4A"/>
<path d="M274.265 63.1223L274.077 71.0533H273.373C272.622 71.0533 271.887 71.1316 271.167 71.288C270.448 71.4444 269.791 71.7104 269.196 72.0858C268.602 72.4299 268.101 72.8992 267.694 73.4937C267.288 74.0881 267.037 74.8234 266.944 75.6994V88.9335H258.027V63.5915H266.944V68.0029C267.319 67.0018 267.741 66.1883 268.211 65.5626C268.68 64.9056 269.196 64.405 269.759 64.0608C270.354 63.6854 270.979 63.4351 271.636 63.31C272.293 63.1848 272.997 63.1223 273.748 63.1223H274.265Z" fill="#0A1E4A"/>
<path d="M252.417 63.5916V88.9335H244.205L243.642 86.3993C243.016 87.2753 242.124 87.9949 240.967 88.5581C239.809 89.1212 238.166 89.4028 236.039 89.4028C233.035 89.4028 230.877 88.7301 229.563 87.3848C228.249 86.0082 227.592 83.8182 227.592 80.8147V63.5916H236.508V78.7029C236.508 80.1733 236.743 81.1588 237.212 81.6594C237.713 82.1287 238.667 82.3634 240.075 82.3634C241.076 82.3634 241.843 82.1757 242.374 81.8002C242.938 81.4248 243.329 80.9242 243.548 80.2985V63.5916H252.417Z" fill="#0A1E4A"/>
<path d="M180.191 89.4028C178.377 89.4028 176.64 89.2933 174.982 89.0743C173.355 88.8553 171.963 88.605 170.805 88.3235V80.2985C171.337 80.4549 171.963 80.6114 172.683 80.7678C173.402 80.9242 174.153 81.065 174.935 81.1902C175.749 81.284 176.562 81.3622 177.376 81.4248C178.189 81.4874 178.956 81.5187 179.675 81.5187C180.645 81.5187 181.412 81.4717 181.975 81.3779C182.569 81.284 183.023 81.1432 183.336 80.9555C183.649 80.7365 183.852 80.4549 183.946 80.1108C184.04 79.7666 184.087 79.3443 184.087 78.8437C184.087 78.4995 184.024 78.1867 183.899 77.9051C183.805 77.6235 183.586 77.3732 183.242 77.1542C182.929 76.9039 182.46 76.6693 181.834 76.4503C181.239 76.2 180.426 75.9497 179.394 75.6994C177.61 75.2927 176.14 74.839 174.982 74.3385C173.856 73.8066 172.964 73.1652 172.307 72.4143C171.65 71.6635 171.197 70.7875 170.946 69.7863C170.696 68.7538 170.571 67.5024 170.571 66.0319C170.571 64.1235 170.868 62.5279 171.462 61.2451C172.057 59.9311 172.902 58.883 173.997 58.1008C175.123 57.2874 176.468 56.7242 178.033 56.4114C179.628 56.0672 181.396 55.8951 183.336 55.8951C185.369 55.8951 187.059 56.0203 188.404 56.2706C189.749 56.4896 190.876 56.7555 191.783 57.0684V64.5302C191.439 64.405 190.938 64.2799 190.281 64.1547C189.655 64.0296 188.967 63.9201 188.216 63.8262C187.465 63.7011 186.699 63.6072 185.917 63.5447C185.135 63.4508 184.415 63.4039 183.758 63.4039C182.256 63.4039 181.177 63.5916 180.52 63.967C179.894 64.3112 179.581 64.8743 179.581 65.6565C179.581 66.0319 179.628 66.3448 179.722 66.5951C179.847 66.8454 180.082 67.08 180.426 67.299C180.77 67.4867 181.255 67.6745 181.881 67.8622C182.507 68.0499 183.32 68.2689 184.321 68.5192C186.355 69.0511 187.966 69.6299 189.155 70.2556C190.375 70.8813 191.298 71.6009 191.924 72.4143C192.549 73.2278 192.956 74.182 193.144 75.277C193.332 76.3721 193.425 77.6548 193.425 79.1253C193.425 80.7522 193.206 82.207 192.768 83.4897C192.33 84.7412 191.595 85.8049 190.563 86.6809C189.562 87.5569 188.216 88.2296 186.527 88.6989C184.837 89.1682 182.726 89.4028 180.191 89.4028Z" fill="#0A1E4A"/>
<path d="M140.984 88.9332H131.036L128.783 82.0817H116.581L114.282 88.9332H104.52L116.487 56.3649H129.111L140.984 88.9332ZM153.166 88.9332H143.826V56.3649H153.166V88.9332ZM119.068 74.5729H126.342L123.01 64.3893H122.447L119.068 74.5729Z" fill="#0A1E4A"/>
<path d="M210.641 62.1696H210.647C218.31 62.3635 224.463 68.6364 224.463 76.3463V76.3531L224.458 76.7057V76.7115C224.398 79.0833 223.754 81.3103 222.667 83.2555L227.031 87.6198L221.555 93.0953L217.191 88.7311C215.146 89.8744 212.79 90.5279 210.282 90.528H210.275L209.921 90.5231H209.916C202.374 90.3317 196.296 84.2533 196.105 76.7115V76.7057L196.1 76.3531V76.3463C196.1 68.5144 202.45 62.1649 210.282 62.1647H210.289L210.641 62.1696ZM210.282 69.7321C206.629 69.7322 203.668 72.6936 203.667 76.3463C203.668 79.9992 206.629 82.9604 210.282 82.9606C213.82 82.9605 216.71 80.1816 216.887 76.6871L216.896 76.3463C216.896 72.8078 214.117 69.9183 210.623 69.7408L210.282 69.7321Z" fill="#0A1E4A"/>
<circle cx="305.02" cy="54.5" r="5.5" fill="url(#paint1_linear_930_10568)"/>
<defs>
<linearGradient id="paint0_linear_930_10568" x1="4408" y1="8" x2="4408" y2="8808" gradientUnits="userSpaceOnUse">
<stop stop-color="#FF4556"/>
<stop offset="1" stop-color="#FA1E32"/>
</linearGradient>
<linearGradient id="paint1_linear_930_10568" x1="305.02" y1="49" x2="303.798" y2="60" gradientUnits="userSpaceOnUse">
<stop stop-color="#2458C9"/>
<stop offset="1" stop-color="#0D1B3A"/>
</linearGradient>
</defs>
</svg>
