<svg width="124" height="124" viewBox="0 0 124 124" fill="none" xmlns="http://www.w3.org/2000/svg">
<g transform="translate(10 10)">
<rect x="8" y="8" width="88" height="88" rx="17.1591" fill="url(#paint0_linear_930_10568)"/>
<path opacity="0.1" d="M68.8171 24.4248C69.1057 23.8418 69.7951 23.5608 70.4173 23.794C71.0808 24.0429 71.4169 24.7825 71.1682 25.4461L71.0189 25.834C67.8231 33.9408 60.5595 39.7216 51.9858 39.7217C43.3038 39.7217 35.9648 33.7935 32.8335 25.5253C32.5825 24.8626 32.9158 24.1219 33.5785 23.8708C34.2414 23.6198 34.982 23.9539 35.233 24.6167C38.0548 32.0671 44.551 37.1553 51.9858 37.1553C59.4443 37.1552 65.9576 32.034 68.7645 24.545L68.8171 24.4248Z" fill="black"/>
<path d="M69.9649 18.9951C71.9898 18.9953 73.631 20.6372 73.631 22.6621C73.6307 24.6292 72.0817 26.2333 70.1368 26.3232C66.6044 33.3809 59.8472 38.2431 51.9854 38.2432C44.1229 38.243 37.3621 33.3811 33.8302 26.3223C31.8947 26.2222 30.3558 24.6224 30.3556 22.6621C30.3556 20.6371 31.9975 18.9951 34.0226 18.9951C36.0475 18.9953 37.6886 20.6372 37.6886 22.6621C37.6884 23.8223 37.1489 24.8557 36.3077 25.5273C39.5114 31.6543 45.3762 35.6766 51.9854 35.6768C58.5977 35.6767 64.4645 31.6502 67.6671 25.5186C66.8324 24.8467 66.2981 23.817 66.2979 22.6621C66.2979 20.6371 67.9399 18.9951 69.9649 18.9951ZM69.9649 20.4619C68.7499 20.4619 67.7647 21.4471 67.7647 22.6621C67.7649 23.2273 67.9798 23.7412 68.3302 24.1309C68.4823 23.7814 68.6295 23.4272 68.7647 23.0664L68.8175 22.9463C69.1061 22.3636 69.795 22.0825 70.4171 22.3154C71.0805 22.5643 71.4168 23.3042 71.1681 23.9678L71.0186 24.3555C70.9792 24.4556 70.9353 24.5539 70.8946 24.6533C71.6442 24.3026 72.1649 23.5441 72.1651 22.6621C72.1651 21.4472 71.1798 20.4621 69.9649 20.4619ZM34.0226 20.4619C32.8075 20.4619 31.8224 21.4471 31.8224 22.6621C31.8226 23.5355 32.3327 24.2884 33.0704 24.6436C32.9896 24.4459 32.909 24.2474 32.8331 24.0469C32.5823 23.3843 32.9159 22.6438 33.5782 22.3926C34.241 22.1416 34.9825 22.4758 35.2335 23.1387C35.3624 23.4789 35.5007 23.8134 35.6446 24.1436C36.0022 23.7524 36.2226 23.2337 36.2227 22.6621C36.2227 21.4472 35.2375 20.4621 34.0226 20.4619Z" fill="white"/>
</g>
<defs><linearGradient id="paint0_linear_930_10568" x1="4408" y1="8" x2="4408" y2="8808" gradientUnits="userSpaceOnUse"><stop stop-color="#FF4556"/><stop offset="1" stop-color="#FA1E32"/></linearGradient></defs>
</svg>
