<svg width="468" height="96" viewBox="0 0 468 96" fill="none" xmlns="http://www.w3.org/2000/svg">
<rect x="5" y="4" width="88" height="88" rx="18" fill="#325BE6"/>
<path d="M50.2213 38.8431H42.0413C40.9733 38.8431 40.2366 37.7927 40.6166 36.8127L48.7448 15.8492C48.8548 15.5655 49.0499 15.3214 49.3042 15.1492C49.5585 14.9769 49.8601 14.8847 50.169 14.8846H63.885C64.9672 14.8846 65.7049 15.962 65.2964 16.947L60.5637 28.3613H69.4733C70.7836 28.3613 71.4827 29.879 70.6185 30.8465L48.7743 55.3036C47.7124 56.4928 45.7436 55.4624 46.1557 53.9333L50.2213 38.8431Z" fill="white"/>
<path d="M39.9121 27.2836C31.9197 29.9315 26.1533 37.4656 26.1533 46.3461C26.1536 57.4338 35.1427 66.4223 46.2305 66.4223C57.3182 66.4221 66.3064 57.4338 66.3066 46.3461C66.3066 45.0672 66.1846 43.8164 65.9561 42.6039L74.4941 33.0453C76.3963 37.0806 77.46 41.5893 77.46 46.3461L77.4502 47.1518C77.3074 52.7858 75.6704 58.048 72.9238 62.56C73.2769 62.7983 73.6133 63.0727 73.9258 63.3852L81.6426 71.102C83.0218 72.4813 83.0219 74.7178 81.6426 76.0971L77.0967 80.643C75.7174 82.022 73.4808 82.0221 72.1016 80.643L64.3848 72.9262C64.1538 72.6953 63.9443 72.4506 63.7539 72.1967C58.7571 75.5904 52.726 77.5755 46.2305 77.5756L45.4238 77.5658C28.8164 77.1449 15.4306 63.7592 15.0098 47.1518L15 46.3461C15 29.6402 28.1174 15.9967 44.6143 15.1557L39.9121 27.2836Z" fill="white"/>
<path d="M173.577 20.3441C176.514 20.3441 179.076 20.7051 181.263 21.4261L180.168 24.2669C178.632 28.251 181.64 32.3646 185.745 32.3646H186.696L184.776 39.5287C183.628 43.8096 186.888 46.8731 190.358 47.0121C190.278 47.4309 190.194 47.8547 190.103 48.2826C188.241 57.0415 184.979 63.9133 180.318 68.8968C175.656 73.8802 169.439 76.3714 161.668 76.3714C153.898 76.3713 148.741 73.88 146.198 68.8968C143.706 63.9133 143.39 57.0415 145.252 48.2826C147.093 39.6244 150.344 32.8032 155.005 27.8197C159.667 22.8361 165.858 20.3441 173.577 20.3441ZM170.609 34.3128C167.572 34.3128 165.308 35.5215 163.817 37.9378C162.336 40.3038 161.115 43.7521 160.152 48.2826C159.167 52.9138 158.881 56.4376 159.294 58.8539C159.769 61.2196 161.55 62.4027 164.638 62.4027C167.726 62.4027 169.984 61.2197 171.413 58.8539C172.905 56.4376 174.143 52.9137 175.127 48.2826C176.09 43.7521 176.335 40.3038 175.86 37.9378C175.395 35.5216 173.645 34.3129 170.609 34.3128Z" fill="#0A1E4A"/>
<path d="M130.84 37.3335C130.843 35.622 130.519 34.3635 129.867 33.5581C129.214 32.7526 128.091 32.3499 126.495 32.3499C124.076 32.3499 122.143 33.4574 120.694 35.6723C119.297 37.8872 118.07 41.3606 117.012 46.0925C118.373 44.532 120.128 43.2987 122.276 42.3926C124.424 41.4865 126.682 41.0334 129.05 41.0334C134.042 41.0334 137.709 42.5436 140.052 45.564C142.446 48.5843 143.044 52.9135 141.846 58.5515C141.054 62.2766 139.561 65.5487 137.366 68.3677C135.234 71.1363 132.515 73.2758 129.209 74.7859C125.954 76.2961 122.32 77.0512 118.306 77.0512C110.329 77.0512 105.285 74.6349 103.172 69.8023C101.123 64.9194 101.044 58.0229 102.938 49.1129C105.036 39.2464 108.223 31.9975 112.501 27.3663C116.779 22.7351 122.572 20.4195 129.88 20.4195C135.799 20.4195 139.928 22.0555 142.269 25.3276C144.672 28.5493 145.546 32.5513 144.889 37.3335H130.84ZM122.905 52.5108C121.103 52.5108 119.504 53.0142 118.106 54.021C116.76 55.0278 115.889 56.4624 115.493 58.325C115.076 60.2882 115.295 61.7984 116.151 62.8555C117.007 63.9126 118.439 64.4412 120.446 64.4412C122.299 64.4412 123.847 63.9378 125.09 62.931C126.395 61.8739 127.251 60.3889 127.658 58.476C128.054 56.6134 127.824 55.1536 126.968 54.0965C126.163 53.0394 124.809 52.5108 122.905 52.5108Z" fill="#0A1E4A"/>
<path d="M192.775 27.6992H185.745C184.827 27.6992 184.194 26.7917 184.521 25.945L191.506 7.8333C191.601 7.58826 191.768 7.37737 191.987 7.22856C192.205 7.07975 192.465 7.00004 192.73 7H204.517C205.447 7 206.081 7.93078 205.73 8.78176L201.663 18.6433H209.32C210.446 18.6433 211.047 19.9545 210.304 20.7904L191.531 41.9205C190.619 42.9479 188.927 42.0576 189.281 40.7365L192.775 27.6992Z" fill="url(#paint0_linear_1378_6931)"/>
<path d="M205.28 75.4653C202.194 75.4653 199.539 74.9688 197.313 73.9758C195.137 72.9432 193.524 71.553 192.475 69.8054C191.474 68.0181 191.129 66.0123 191.439 63.7881H203.012C202.946 64.8605 203.276 65.6946 204.002 66.2904C204.729 66.8861 205.721 67.184 206.98 67.184C207.954 67.184 208.768 66.9854 209.421 66.5883C210.074 66.1911 210.468 65.6747 210.603 65.0392C210.78 64.2052 210.444 63.5895 209.595 63.1923C208.745 62.7952 207.295 62.3583 205.244 61.8817C202.909 61.405 200.993 60.8688 199.495 60.2731C197.998 59.6773 196.783 58.7042 195.852 57.3538C194.962 56.0034 194.761 54.1763 195.251 51.8727C195.673 49.8868 196.601 48.0994 198.035 46.5107C199.478 44.8823 201.356 43.5914 203.67 42.6382C206.025 41.685 208.704 41.2083 211.709 41.2083C216.176 41.2083 219.46 42.2807 221.563 44.4255C223.665 46.5703 224.547 49.3903 224.211 52.8855H213.43C213.455 51.8131 213.141 50.9989 212.487 50.4428C211.883 49.847 210.951 49.5492 209.693 49.5492C208.718 49.5492 207.929 49.7279 207.325 50.0854C206.762 50.4428 206.413 50.9393 206.278 51.5748C206.109 52.3691 206.445 52.9848 207.286 53.4217C208.135 53.8189 209.549 54.2359 211.527 54.6728C213.894 55.1891 215.823 55.7651 217.312 56.4005C218.841 57.036 220.063 58.0687 220.978 59.4986C221.941 60.8887 222.165 62.7952 221.65 65.218C221.236 67.1642 220.276 68.9118 218.769 70.4608C217.303 72.0098 215.397 73.241 213.051 74.1546C210.753 75.0284 208.163 75.4653 205.28 75.4653Z" fill="#0A1E4A"/>
<path d="M440.1 47.9371C441.984 47.9371 443.541 48.3089 444.771 49.0526C446.035 49.7963 446.913 50.7987 447.405 52.0597L448.209 48.2766H457.928L452.206 75.195C451.663 77.7495 450.679 80.0452 449.255 82.0823C447.823 84.1517 445.919 85.8007 443.542 87.0295C441.198 88.2582 438.423 88.8725 435.217 88.8725C430.919 88.8725 427.691 87.8863 425.532 85.9139C423.373 83.9415 422.472 81.2577 422.83 77.8626H432.4C432.413 78.7357 432.764 79.4147 433.455 79.8997C434.145 80.3847 435.118 80.6272 436.374 80.6272C439.68 80.6272 441.718 78.8165 442.487 75.195L443.23 71.7029C442.201 72.964 440.897 73.9663 439.318 74.71C437.771 75.4537 436.056 75.8256 434.172 75.8256C431.957 75.8256 430.061 75.2597 428.483 74.128C426.939 72.9963 425.861 71.3796 425.25 69.2778C424.679 67.1438 424.692 64.6702 425.29 61.8571C425.888 59.044 426.923 56.5866 428.394 54.4848C429.899 52.3831 431.664 50.7664 433.689 49.6346C435.748 48.5029 437.885 47.9371 440.1 47.9371ZM445.322 61.8571C445.694 60.111 445.49 58.7368 444.711 57.7344C443.966 56.7321 442.882 56.2309 441.461 56.2309C440.006 56.2309 438.693 56.7321 437.521 57.7344C436.356 58.7045 435.585 60.0787 435.207 61.8571C434.836 63.6031 435.02 64.9935 435.758 66.0282C436.504 67.0306 437.604 67.5318 439.059 67.5318C440.48 67.5318 441.777 67.0306 442.948 66.0282C444.153 65.0259 444.944 63.6355 445.322 61.8571Z" fill="#0A1E4A"/>
<path d="M415.012 48.0341C418.218 48.0341 420.54 49.085 421.978 51.1867C423.422 53.2561 423.766 56.0692 423.01 59.626L419.639 75.486H409.92L413.024 60.887C413.353 59.335 413.198 58.1224 412.557 57.2494C411.923 56.344 410.912 55.8914 409.524 55.8914C408.069 55.8914 406.832 56.344 405.814 57.2494C404.802 58.1224 404.131 59.335 403.801 60.887L400.698 75.486H390.979L396.762 48.2766H406.481L405.656 52.1567C406.777 50.928 408.144 49.9418 409.756 49.1981C411.376 48.4221 413.128 48.0341 415.012 48.0341Z" fill="#0A1E4A"/>
<path d="M348.9 61.8571C349.498 59.044 350.615 56.5866 352.252 54.4848C353.889 52.3831 355.885 50.7664 358.242 49.6346C360.631 48.5029 363.197 47.9371 365.941 47.9371C369.478 47.9371 372.251 48.891 374.258 50.7987C376.273 52.6741 377.266 55.3093 377.239 58.7045H366.925C366.708 56.9261 365.74 56.0369 364.021 56.0369C362.798 56.0369 361.716 56.5381 360.776 57.5404C359.876 58.5105 359.223 59.9493 358.817 61.8571C358.412 63.7648 358.449 65.2199 358.931 66.2222C359.445 67.2246 360.313 67.7258 361.537 67.7258C363.289 67.7258 364.635 66.8366 365.575 65.0582H375.888C374.479 68.421 372.365 71.0562 369.547 72.964C366.728 74.8717 363.55 75.8256 360.013 75.8256C357.27 75.8256 354.944 75.2597 353.035 74.128C351.16 72.9963 349.851 71.3796 349.108 69.2778C348.365 67.1761 348.295 64.7025 348.9 61.8571Z" fill="#0A1E4A"/>
<path d="M340.885 53.0783C342.306 51.5262 343.889 50.2975 345.635 49.3921C347.381 48.4868 349.147 48.0341 350.932 48.0341L348.777 58.1709H346.05C343.934 58.1709 342.278 58.5751 341.082 59.3835C339.885 60.1918 339.074 61.5984 338.648 63.6031L336.122 75.486H326.403L332.187 48.2766H341.905L340.885 53.0783Z" fill="#0A1E4A"/>
<path d="M327.648 48.2766L321.864 75.4861H312.096L312.92 71.6059C311.833 72.8347 310.479 73.837 308.86 74.6131C307.247 75.3567 305.499 75.7286 303.615 75.7286C300.375 75.7286 298.033 74.6939 296.589 72.6245C295.184 70.5227 294.864 67.6773 295.626 64.0882L298.987 48.2766H308.656L305.553 62.8756C305.223 64.4277 305.375 65.6564 306.009 66.5618C306.683 67.4348 307.714 67.8713 309.103 67.8713C310.524 67.8713 311.741 67.4348 312.753 66.5618C313.772 65.6564 314.446 64.4277 314.776 62.8756L317.879 48.2766H327.648Z" fill="#0A1E4A"/>
<path d="M275.74 75.8256C272.963 75.8256 270.588 75.2597 268.613 74.128C266.672 72.9963 265.297 71.3796 264.488 69.2778C263.678 67.1761 263.576 64.7025 264.181 61.8571C264.779 59.044 265.929 56.5866 267.632 54.4848C269.368 52.3831 271.447 50.7664 273.869 49.6346C276.325 48.5029 278.941 47.9371 281.717 47.9371C284.494 47.9371 286.853 48.5029 288.794 49.6346C290.769 50.7664 292.161 52.3831 292.97 54.4848C293.812 56.5866 293.935 59.044 293.337 61.8571C292.739 64.6702 291.568 67.1438 289.826 69.2778C288.123 71.3796 286.044 72.9963 283.588 74.128C281.133 75.2597 278.517 75.8256 275.74 75.8256ZM277.493 67.5803C278.848 67.5803 280.075 67.0953 281.174 66.1252C282.312 65.1229 283.078 63.7001 283.469 61.8571C283.861 60.014 283.697 58.6075 282.978 57.6374C282.291 56.6674 281.287 56.1824 279.965 56.1824C278.643 56.1824 277.432 56.6674 276.333 57.6374C275.235 58.6075 274.489 60.014 274.098 61.8571C273.699 63.7325 273.826 65.1552 274.48 66.1252C275.133 67.0953 276.137 67.5803 277.493 67.5803Z" fill="#0A1E4A"/>
<path d="M246.231 75.8256C242.165 75.8256 239.026 74.8879 236.813 73.0125C234.607 71.1047 233.779 68.3886 234.33 64.8642H244.693C244.538 66.0606 244.716 66.9336 245.227 67.4833C245.739 68.033 246.49 68.3078 247.482 68.3078C248.374 68.3078 249.146 68.0976 249.798 67.6773C250.489 67.2246 250.917 66.6103 251.082 65.8342C251.295 64.8319 250.981 64.0558 250.139 63.5061C249.297 62.9565 247.874 62.3421 245.869 61.6631C243.747 60.9194 242.047 60.208 240.77 59.529C239.532 58.8176 238.526 57.7991 237.75 56.4734C237.014 55.1154 236.876 53.3531 237.336 51.1867C237.804 48.988 238.764 47.1126 240.218 45.5605C241.679 43.9761 243.487 42.7798 245.642 41.9714C247.797 41.163 250.131 40.7589 252.643 40.7589C256.709 40.7589 259.75 41.6965 261.764 43.5719C263.819 45.415 264.571 48.0179 264.021 51.3807H253.46C253.647 50.346 253.481 49.57 252.963 49.0526C252.478 48.5353 251.756 48.2766 250.797 48.2766C250.07 48.2766 249.43 48.4868 248.878 48.9071C248.326 49.3275 247.968 49.9257 247.803 50.7017C247.665 51.3484 247.793 51.9142 248.186 52.3993C248.618 52.8519 249.177 53.2561 249.862 53.6118C250.553 53.9351 251.588 54.3555 252.965 54.8728C255.022 55.6165 256.682 56.3602 257.946 57.1039C259.249 57.8153 260.272 58.8338 261.015 60.1595C261.798 61.4529 261.976 63.102 261.55 65.1067C261.117 67.1438 260.2 68.9707 258.799 70.5874C257.43 72.2041 255.655 73.4813 253.472 74.419C251.322 75.3567 248.909 75.8256 246.231 75.8256Z" fill="#0A1E4A"/>
<path d="M241.431 22.4033C241.274 23.1408 240.884 23.7554 240.259 24.2471C239.645 24.7303 238.809 24.9719 237.752 24.9719H236.01L235.224 28.6722H234.041L235.924 19.8092H238.849C239.872 19.8092 240.596 20.0508 241.022 20.534C241.457 21.0172 241.593 21.6403 241.431 22.4033ZM237.955 24.0182C238.613 24.0182 239.129 23.8783 239.5 23.5986C239.871 23.3188 240.112 22.9204 240.222 22.4033C240.454 21.3097 239.929 20.7629 238.647 20.7629H236.905L236.213 24.0182H237.955ZM244.652 28.7867C243.984 28.7867 243.409 28.6383 242.926 28.3416C242.452 28.0449 242.116 27.6253 241.92 27.0827C241.733 26.5317 241.717 25.8959 241.87 25.1753C242.021 24.4632 242.311 23.8359 242.738 23.2934C243.176 22.7424 243.698 22.3227 244.306 22.0345C244.915 21.7378 245.557 21.5894 246.233 21.5894C246.909 21.5894 247.489 21.7378 247.972 22.0345C248.456 22.3227 248.797 22.7381 248.994 23.2807C249.199 23.8232 249.225 24.4548 249.072 25.1753C248.919 25.8959 248.619 26.5317 248.173 27.0827C247.737 27.6253 247.21 28.0449 246.592 28.3416C245.974 28.6383 245.328 28.7867 244.652 28.7867ZM244.868 27.7694C245.292 27.7694 245.712 27.6719 246.126 27.4769C246.54 27.2819 246.901 26.9895 247.209 26.5995C247.526 26.2096 247.744 25.7348 247.863 25.1753C247.982 24.6158 247.97 24.1411 247.828 23.7512C247.685 23.3612 247.452 23.073 247.128 22.8865C246.805 22.6915 246.431 22.594 246.007 22.594C245.573 22.594 245.154 22.6915 244.749 22.8865C244.354 23.073 244.006 23.3612 243.707 23.7512C243.407 24.1411 243.198 24.6158 243.079 25.1753C242.958 25.7433 242.961 26.2223 243.086 26.6122C243.219 27.0022 243.443 27.2947 243.757 27.4896C244.073 27.6761 244.443 27.7694 244.868 27.7694ZM260.855 21.7039L257.151 28.6722H255.929L255.389 23.1408L252.497 28.6722H251.275L250.52 21.7039H251.729L252.124 27.5532L255.135 21.7039H256.344L256.827 27.5659L259.685 21.7039H260.855ZM267.846 24.921C267.799 25.1414 267.736 25.3746 267.658 25.6204H261.964C261.861 26.3071 261.985 26.8454 262.336 27.2353C262.697 27.6168 263.189 27.8075 263.813 27.8075C264.324 27.8075 264.773 27.6931 265.16 27.4642C265.557 27.2268 265.867 26.9132 266.088 26.5232H267.362C267.029 27.1929 266.532 27.7397 265.869 28.1636C265.209 28.579 264.454 28.7867 263.605 28.7867C262.929 28.7867 262.354 28.6383 261.88 28.3416C261.414 28.0449 261.087 27.6253 260.899 27.0827C260.713 26.5317 260.696 25.8959 260.85 25.1753C261.003 24.4548 261.284 23.8232 261.694 23.2807C262.104 22.7381 262.604 22.3227 263.194 22.0345C263.795 21.7378 264.441 21.5894 265.135 21.5894C265.811 21.5894 266.378 21.7336 266.837 22.0218C267.296 22.31 267.61 22.7084 267.779 23.2171C267.959 23.7172 267.981 24.2852 267.846 24.921ZM266.675 24.6794C266.769 24.2386 266.749 23.8614 266.617 23.5477C266.486 23.2256 266.264 22.984 265.952 22.8229C265.65 22.6533 265.291 22.5686 264.875 22.5686C264.277 22.5686 263.726 22.7551 263.222 23.1281C262.727 23.5011 262.378 24.0182 262.177 24.6794H266.675ZM271.033 22.8356C271.326 22.4372 271.687 22.1278 272.115 21.9073C272.552 21.6869 273.047 21.5767 273.602 21.5767L273.348 22.772H273.036C271.71 22.772 270.897 23.4756 270.598 24.8829L269.793 28.6722H268.61L270.091 21.7039H271.274L271.033 22.8356ZM280.757 24.921C280.71 25.1414 280.647 25.3746 280.569 25.6204H274.875C274.773 26.3071 274.896 26.8454 275.247 27.2353C275.608 27.6168 276.1 27.8075 276.724 27.8075C277.236 27.8075 277.685 27.6931 278.071 27.4642C278.468 27.2268 278.778 26.9132 278.999 26.5232H280.273C279.94 27.1929 279.443 27.7397 278.781 28.1636C278.12 28.579 277.365 28.7867 276.516 28.7867C275.84 28.7867 275.265 28.6383 274.791 28.3416C274.325 28.0449 273.998 27.6253 273.81 27.0827C273.624 26.5317 273.608 25.8959 273.761 25.1753C273.914 24.4548 274.195 23.8232 274.605 23.2807C275.015 22.7381 275.515 22.3227 276.105 22.0345C276.706 21.7378 277.353 21.5894 278.046 21.5894C278.722 21.5894 279.289 21.7336 279.748 22.0218C280.207 22.31 280.521 22.7084 280.69 23.2171C280.87 23.7172 280.892 24.2852 280.757 24.921ZM279.586 24.6794C279.68 24.2386 279.66 23.8614 279.528 23.5477C279.397 23.2256 279.175 22.984 278.863 22.8229C278.561 22.6533 278.202 22.5686 277.786 22.5686C277.188 22.5686 276.637 22.7551 276.133 23.1281C275.638 23.5011 275.289 24.0182 275.088 24.6794H279.586ZM281.825 25.1626C281.976 24.4505 282.256 23.8274 282.664 23.2934C283.074 22.7508 283.566 22.3312 284.141 22.0345C284.724 21.7378 285.336 21.5894 285.977 21.5894C286.532 21.5894 287.021 21.7166 287.443 21.9709C287.868 22.2168 288.162 22.5431 288.327 22.9501L289.111 19.2624H290.307L288.307 28.6722H287.111L287.389 27.3625C287.067 27.7779 286.647 28.1212 286.13 28.3925C285.615 28.6553 285.05 28.7867 284.435 28.7867C283.802 28.7867 283.258 28.6341 282.803 28.3289C282.357 28.0237 282.045 27.5956 281.867 27.0446C281.689 26.4936 281.675 25.8662 281.825 25.1626ZM287.854 25.1753C287.966 24.6497 287.955 24.192 287.821 23.802C287.687 23.4121 287.456 23.1154 287.126 22.9119C286.807 22.7 286.427 22.594 285.985 22.594C285.543 22.594 285.118 22.6957 284.711 22.8992C284.304 23.1026 283.95 23.3993 283.651 23.7893C283.351 24.1793 283.146 24.637 283.034 25.1626C282.92 25.6967 282.93 26.1629 283.062 26.5614C283.195 26.9513 283.422 27.2523 283.741 27.4642C284.062 27.6677 284.443 27.7694 284.885 27.7694C285.327 27.7694 285.752 27.6677 286.159 27.4642C286.576 27.2523 286.935 26.9513 287.235 26.5614C287.536 26.1629 287.743 25.7009 287.854 25.1753ZM296.16 23.0009C296.491 22.5855 296.919 22.2464 297.443 21.9836C297.967 21.7208 298.527 21.5894 299.125 21.5894C299.767 21.5894 300.312 21.7378 300.76 22.0345C301.208 22.3312 301.522 22.7508 301.701 23.2934C301.882 23.8274 301.897 24.4505 301.746 25.1626C301.596 25.8662 301.316 26.4936 300.904 27.0446C300.492 27.5956 299.994 28.0237 299.409 28.3289C298.833 28.6341 298.228 28.7867 297.596 28.7867C296.98 28.7867 296.467 28.6553 296.054 28.3925C295.651 28.1297 295.375 27.7948 295.228 27.3879L294.955 28.6722H293.772L295.772 19.2624H296.955L296.16 23.0009ZM300.537 25.1626C300.649 24.637 300.638 24.1793 300.504 23.7893C300.37 23.3993 300.138 23.1026 299.809 22.8992C299.488 22.6957 299.107 22.594 298.665 22.594C298.232 22.594 297.806 22.7 297.388 22.9119C296.981 23.1154 296.622 23.4163 296.312 23.8147C296.013 24.2047 295.808 24.6582 295.698 25.1753C295.587 25.7009 295.597 26.1629 295.729 26.5614C295.871 26.9513 296.102 27.2523 296.421 27.4642C296.75 27.6677 297.132 27.7694 297.565 27.7694C298.007 27.7694 298.431 27.6677 298.839 27.4642C299.256 27.2523 299.615 26.9513 299.915 26.5614C300.216 26.1629 300.423 25.6967 300.537 25.1626ZM310.174 21.7039L303.706 31.9529H302.484L304.601 28.5959L303.193 21.7039H304.506L305.542 27.3498L308.952 21.7039H310.174ZM320.809 19.8092L320.609 20.7502H318.139L316.455 28.6722H315.272L316.956 20.7502H314.473L314.673 19.8092H320.809ZM320.685 25.1626C320.837 24.4505 321.116 23.8274 321.525 23.2934C321.935 22.7508 322.427 22.3312 323.001 22.0345C323.584 21.7378 324.192 21.5894 324.825 21.5894C325.449 21.5894 325.963 21.7208 326.366 21.9836C326.77 22.2464 327.042 22.5771 327.182 22.9755L327.453 21.7039H328.649L327.167 28.6722H325.971L326.247 27.3752C325.927 27.7821 325.503 28.1212 324.978 28.3925C324.463 28.6553 323.897 28.7867 323.282 28.7867C322.649 28.7867 322.11 28.6341 321.663 28.3289C321.217 28.0237 320.905 27.5956 320.727 27.0446C320.55 26.4936 320.536 25.8662 320.685 25.1626ZM326.715 25.1753C326.826 24.6497 326.815 24.192 326.682 23.802C326.548 23.4121 326.316 23.1154 325.987 22.9119C325.668 22.7 325.287 22.594 324.845 22.594C324.403 22.594 323.979 22.6957 323.571 22.8992C323.164 23.1026 322.811 23.3993 322.511 23.7893C322.212 24.1793 322.006 24.637 321.894 25.1626C321.781 25.6967 321.79 26.1629 321.922 26.5614C322.056 26.9513 322.282 27.2523 322.601 27.4642C322.922 27.6677 323.303 27.7694 323.745 27.7694C324.187 27.7694 324.612 27.6677 325.019 27.4642C325.437 27.2523 325.795 26.9513 326.095 26.5614C326.396 26.1629 326.603 25.7009 326.715 25.1753ZM334.146 21.5767C335.012 21.5767 335.659 21.8353 336.087 22.3524C336.516 22.861 336.628 23.5986 336.423 24.565L335.55 28.6722H334.38L335.217 24.7303C335.365 24.0351 335.3 23.5053 335.022 23.1408C334.746 22.7678 334.301 22.5813 333.685 22.5813C333.061 22.5813 332.522 22.772 332.069 23.1535C331.623 23.535 331.323 24.0902 331.168 24.8193L330.35 28.6722H329.167L330.648 21.7039H331.831L331.62 22.6957C331.93 22.3397 332.304 22.0642 332.745 21.8692C333.193 21.6742 333.66 21.5767 334.146 21.5767ZM341.925 21.5894C342.541 21.5894 343.05 21.7208 343.454 21.9836C343.866 22.2464 344.142 22.5771 344.283 22.9755L344.553 21.7039H345.749L344.236 28.8248C344.1 29.4606 343.842 30.0243 343.46 30.516C343.076 31.0162 342.595 31.4061 342.015 31.6859C341.445 31.9656 340.817 32.1055 340.132 32.1055C339.196 32.1055 338.462 31.8893 337.93 31.457C337.398 31.0247 337.155 30.4355 337.201 29.6895H338.371C338.411 30.1134 338.607 30.4524 338.96 30.7068C339.312 30.9696 339.774 31.101 340.346 31.101C340.996 31.101 341.567 30.9017 342.059 30.5033C342.559 30.1049 342.886 29.5454 343.04 28.8248L343.35 27.3625C343.03 27.7694 342.611 28.1085 342.094 28.3797C341.577 28.651 341.011 28.7867 340.396 28.7867C339.763 28.7867 339.219 28.6341 338.764 28.3289C338.317 28.0237 338.005 27.5956 337.828 27.0446C337.65 26.4936 337.636 25.8662 337.786 25.1626C337.937 24.4505 338.217 23.8274 338.625 23.2934C339.035 22.7508 339.527 22.3312 340.102 22.0345C340.685 21.7378 341.293 21.5894 341.925 21.5894ZM343.815 25.1753C343.927 24.6497 343.916 24.192 343.782 23.802C343.648 23.4121 343.417 23.1154 343.087 22.9119C342.768 22.7 342.388 22.594 341.946 22.594C341.504 22.594 341.079 22.6957 340.672 22.8992C340.265 23.1026 339.911 23.3993 339.612 23.7893C339.312 24.1793 339.107 24.637 338.995 25.1626C338.881 25.6967 338.891 26.1629 339.023 26.5614C339.156 26.9513 339.383 27.2523 339.702 27.4642C340.022 27.6677 340.404 27.7694 340.846 27.7694C341.288 27.7694 341.712 27.6677 342.12 27.4642C342.537 27.2523 342.896 26.9513 343.196 26.5614C343.497 26.1629 343.704 25.7009 343.815 25.1753ZM348.656 23.0009C348.987 22.5855 349.414 22.2464 349.938 21.9836C350.462 21.7208 351.023 21.5894 351.621 21.5894C352.262 21.5894 352.807 21.7378 353.255 22.0345C353.703 22.3312 354.017 22.7508 354.196 23.2934C354.378 23.8274 354.392 24.4505 354.241 25.1626C354.092 25.8662 353.811 26.4936 353.399 27.0446C352.987 27.5956 352.489 28.0237 351.904 28.3289C351.328 28.6341 350.723 28.7867 350.091 28.7867C349.475 28.7867 348.962 28.6553 348.55 28.3925C348.146 28.1297 347.871 27.7948 347.723 27.3879L347.45 28.6722H346.267L348.267 19.2624H349.45L348.656 23.0009ZM353.032 25.1626C353.144 24.637 353.133 24.1793 352.999 23.7893C352.865 23.3993 352.634 23.1026 352.304 22.8992C351.983 22.6957 351.602 22.594 351.16 22.594C350.727 22.594 350.301 22.7 349.883 22.9119C349.476 23.1154 349.118 23.4163 348.808 23.8147C348.508 24.2047 348.303 24.6582 348.193 25.1753C348.082 25.7009 348.092 26.1629 348.224 26.5614C348.366 26.9513 348.597 27.2523 348.916 27.4642C349.245 27.6677 349.627 27.7694 350.06 27.7694C350.502 27.7694 350.927 27.6677 351.334 27.4642C351.752 27.2523 352.11 26.9513 352.41 26.5614C352.711 26.1629 352.919 25.6967 353.032 25.1626ZM362.851 21.7039L361.37 28.6722H360.187L360.406 27.6422C360.105 27.9983 359.729 28.278 359.279 28.4815C358.839 28.6765 358.376 28.7739 357.891 28.7739C357.336 28.7739 356.861 28.6637 356.466 28.4433C356.073 28.2144 355.794 27.8754 355.629 27.4261C355.473 26.9768 355.464 26.43 355.601 25.7857L356.468 21.7039H357.638L356.803 25.6331C356.657 26.3198 356.722 26.8496 356.998 27.2226C357.276 27.5871 357.723 27.7694 358.338 27.7694C358.971 27.7694 359.51 27.5786 359.955 27.1972C360.4 26.8157 360.7 26.2604 360.855 25.5314L361.668 21.7039H362.851ZM370.985 21.7039L364.516 31.9529H363.294L365.412 28.5959L364.004 21.7039H365.317L366.353 27.3498L369.763 21.7039H370.985ZM378.864 19.8092C379.852 19.8092 380.667 19.9915 381.308 20.356C381.961 20.712 382.406 21.2249 382.645 21.8946C382.893 22.5643 382.92 23.3527 382.728 24.2598C382.535 25.1669 382.172 25.9552 381.64 26.625C381.118 27.2862 380.455 27.7948 379.652 28.1509C378.858 28.4984 377.968 28.6722 376.98 28.6722H374.159L376.043 19.8092H378.864ZM377.182 27.7185C378.352 27.7185 379.309 27.4176 380.052 26.8157C380.797 26.2053 381.286 25.3534 381.519 24.2598C381.753 23.1577 381.624 22.2973 381.131 21.6785C380.647 21.0596 379.825 20.7502 378.664 20.7502H377.026L375.544 27.7185H377.182ZM385.774 22.8356C386.066 22.4372 386.427 22.1278 386.855 21.9073C387.292 21.6869 387.788 21.5767 388.342 21.5767L388.088 22.772H387.776C386.45 22.772 385.638 23.4756 385.339 24.8829L384.533 28.6722H383.35L384.831 21.7039H386.014L385.774 22.8356ZM391.282 28.7867C390.615 28.7867 390.04 28.6383 389.557 28.3416C389.083 28.0449 388.747 27.6253 388.551 27.0827C388.364 26.5317 388.348 25.8959 388.501 25.1753C388.652 24.4632 388.942 23.8359 389.369 23.2934C389.807 22.7424 390.329 22.3227 390.937 22.0345C391.546 21.7378 392.188 21.5894 392.864 21.5894C393.54 21.5894 394.12 21.7378 394.603 22.0345C395.087 22.3227 395.428 22.7381 395.625 23.2807C395.83 23.8232 395.856 24.4548 395.703 25.1753C395.55 25.8959 395.25 26.5317 394.804 27.0827C394.368 27.6253 393.841 28.0449 393.223 28.3416C392.605 28.6383 391.958 28.7867 391.282 28.7867ZM391.499 27.7694C391.923 27.7694 392.343 27.6719 392.757 27.4769C393.171 27.2819 393.532 26.9895 393.84 26.5995C394.157 26.2096 394.375 25.7348 394.494 25.1753C394.613 24.6158 394.601 24.1411 394.459 23.7512C394.316 23.3612 394.083 23.073 393.759 22.8865C393.436 22.6915 393.062 22.594 392.638 22.594C392.204 22.594 391.785 22.6915 391.38 22.8865C390.985 23.073 390.637 23.3612 390.338 23.7512C390.038 24.1411 389.829 24.6158 389.71 25.1753C389.589 25.7433 389.591 26.2223 389.717 26.6122C389.85 27.0022 390.074 27.2947 390.388 27.4896C390.704 27.6761 391.074 27.7694 391.499 27.7694ZM398.906 22.9882C399.225 22.5898 399.642 22.2592 400.157 21.9964C400.683 21.7251 401.253 21.5894 401.869 21.5894C402.501 21.5894 403.042 21.7378 403.49 22.0345C403.947 22.3312 404.265 22.7508 404.444 23.2934C404.626 23.8274 404.64 24.4505 404.489 25.1626C404.34 25.8662 404.059 26.4936 403.647 27.0446C403.235 27.5956 402.737 28.0237 402.152 28.3289C401.576 28.6341 400.971 28.7867 400.339 28.7867C399.732 28.7867 399.223 28.6553 398.811 28.3925C398.409 28.1212 398.129 27.7863 397.971 27.3879L396.995 31.9784H395.812L397.996 21.7039H399.179L398.906 22.9882ZM403.28 25.1626C403.392 24.637 403.381 24.1793 403.247 23.7893C403.113 23.3993 402.882 23.1026 402.552 22.8992C402.231 22.6957 401.85 22.594 401.408 22.594C400.975 22.594 400.549 22.7 400.132 22.9119C399.724 23.1154 399.366 23.4163 399.056 23.8147C398.756 24.2047 398.551 24.6582 398.441 25.1753C398.33 25.7009 398.34 26.1629 398.472 26.5614C398.614 26.9513 398.845 27.2523 399.164 27.4642C399.493 27.6677 399.875 27.7694 400.308 27.7694C400.75 27.7694 401.175 27.6677 401.582 27.4642C402 27.2523 402.358 26.9513 402.658 26.5614C402.959 26.1629 403.167 25.6967 403.28 25.1626ZM407.798 28.7867C407.252 28.7867 406.781 28.6976 406.386 28.5196C405.992 28.3331 405.704 28.0788 405.521 27.7567C405.34 27.4261 405.281 27.0488 405.345 26.625H406.567C406.528 26.9725 406.633 27.2565 406.88 27.4769C407.137 27.6973 407.508 27.8075 407.993 27.8075C408.444 27.8075 408.82 27.71 409.121 27.5151C409.423 27.3201 409.605 27.0742 409.668 26.7775C409.733 26.4724 409.642 26.2477 409.395 26.1036C409.15 25.951 408.753 25.8027 408.203 25.6585C407.703 25.5229 407.299 25.3873 406.989 25.2516C406.691 25.1075 406.449 24.8998 406.264 24.6286C406.089 24.3488 406.05 23.9843 406.145 23.535C406.221 23.1789 406.399 22.8526 406.678 22.5559C406.958 22.2592 407.315 22.026 407.75 21.8565C408.187 21.6785 408.66 21.5894 409.172 21.5894C409.96 21.5894 410.556 21.7844 410.958 22.1744C411.361 22.5643 411.507 23.0984 411.398 23.7766H410.215C410.266 23.4121 410.177 23.1196 409.946 22.8992C409.725 22.6788 409.384 22.5686 408.925 22.5686C408.5 22.5686 408.143 22.6576 407.854 22.8356C407.565 23.0136 407.39 23.2468 407.328 23.535C407.28 23.7639 407.313 23.9546 407.428 24.1072C407.553 24.2513 407.718 24.37 407.924 24.4632C408.14 24.548 408.44 24.6455 408.824 24.7557C409.306 24.8913 409.693 25.027 409.985 25.1626C410.279 25.2898 410.51 25.4848 410.68 25.7476C410.858 26.0103 410.906 26.3537 410.825 26.7775C410.744 27.159 410.563 27.5023 410.281 27.8075C410 28.1127 409.641 28.3543 409.204 28.5323C408.778 28.7019 408.309 28.7867 407.798 28.7867ZM417.136 21.5767C417.674 21.5767 418.135 21.6912 418.52 21.9201C418.906 22.1405 419.173 22.4753 419.32 22.9246C419.476 23.3739 419.485 23.9207 419.348 24.565L418.475 28.6722H417.305L418.143 24.7303C418.291 24.0351 418.226 23.5053 417.948 23.1408C417.672 22.7678 417.226 22.5813 416.611 22.5813C415.987 22.5813 415.448 22.772 414.994 23.1535C414.549 23.535 414.249 24.0902 414.094 24.8193L413.275 28.6722H412.092L414.092 19.2624H415.275L414.546 22.6957C414.855 22.3397 415.235 22.0642 415.683 21.8692C416.141 21.6742 416.625 21.5767 417.136 21.5767ZM422.74 20.5722C422.515 20.5722 422.341 20.4959 422.217 20.3433C422.094 20.1907 422.055 20.0042 422.102 19.7838C422.149 19.5634 422.267 19.3769 422.455 19.2243C422.643 19.0717 422.85 18.9954 423.076 18.9954C423.292 18.9954 423.458 19.0717 423.573 19.2243C423.697 19.3769 423.735 19.5634 423.688 19.7838C423.641 20.0042 423.524 20.1907 423.335 20.3433C423.155 20.4959 422.957 20.5722 422.74 20.5722ZM423.072 21.7039L421.591 28.6722H420.408L421.889 21.7039H423.072ZM425.998 22.9882C426.317 22.5898 426.734 22.2592 427.249 21.9964C427.775 21.7251 428.345 21.5894 428.96 21.5894C429.593 21.5894 430.134 21.7378 430.582 22.0345C431.039 22.3312 431.357 22.7508 431.536 23.2934C431.717 23.8274 431.732 24.4505 431.581 25.1626C431.431 25.8662 431.151 26.4936 430.739 27.0446C430.327 27.5956 429.829 28.0237 429.244 28.3289C428.668 28.6341 428.063 28.7867 427.431 28.7867C426.824 28.7867 426.315 28.6553 425.902 28.3925C425.501 28.1212 425.221 27.7863 425.063 27.3879L424.087 31.9784H422.904L425.088 21.7039H426.271L425.998 22.9882ZM430.372 25.1626C430.484 24.637 430.473 24.1793 430.339 23.7893C430.205 23.3993 429.973 23.1026 429.644 22.8992C429.323 22.6957 428.942 22.594 428.5 22.594C428.067 22.594 427.641 22.7 427.223 22.9119C426.816 23.1154 426.457 23.4163 426.147 23.8147C425.848 24.2047 425.643 24.6582 425.533 25.1753C425.422 25.7009 425.432 26.1629 425.564 26.5614C425.706 26.9513 425.937 27.2523 426.256 27.4642C426.585 27.6677 426.967 27.7694 427.4 27.7694C427.842 27.7694 428.266 27.6677 428.674 27.4642C429.091 27.2523 429.45 26.9513 429.75 26.5614C430.051 26.1629 430.258 25.6967 430.372 25.1626ZM434.783 22.9882C435.102 22.5898 435.519 22.2592 436.034 21.9964C436.56 21.7251 437.13 21.5894 437.746 21.5894C438.378 21.5894 438.919 21.7378 439.367 22.0345C439.824 22.3312 440.142 22.7508 440.321 23.2934C440.503 23.8274 440.517 24.4505 440.366 25.1626C440.217 25.8662 439.936 26.4936 439.524 27.0446C439.112 27.5956 438.614 28.0237 438.029 28.3289C437.453 28.6341 436.848 28.7867 436.216 28.7867C435.609 28.7867 435.1 28.6553 434.688 28.3925C434.286 28.1212 434.006 27.7863 433.848 27.3879L432.872 31.9784H431.689L433.873 21.7039H435.056L434.783 22.9882ZM439.157 25.1626C439.269 24.637 439.258 24.1793 439.124 23.7893C438.99 23.3993 438.759 23.1026 438.429 22.8992C438.108 22.6957 437.727 22.594 437.285 22.594C436.852 22.594 436.426 22.7 436.008 22.9119C435.601 23.1154 435.243 23.4163 434.933 23.8147C434.633 24.2047 434.428 24.6582 434.318 25.1753C434.207 25.7009 434.217 26.1629 434.349 26.5614C434.491 26.9513 434.722 27.2523 435.041 27.4642C435.37 27.6677 435.752 27.7694 436.185 27.7694C436.627 27.7694 437.052 27.6677 437.459 27.4642C437.877 27.2523 438.235 26.9513 438.535 26.5614C438.836 26.1629 439.044 25.6967 439.157 25.1626ZM443.51 20.5722C443.285 20.5722 443.11 20.4959 442.987 20.3433C442.863 20.1907 442.825 20.0042 442.872 19.7838C442.918 19.5634 443.036 19.3769 443.224 19.2243C443.413 19.0717 443.62 18.9954 443.845 18.9954C444.062 18.9954 444.228 19.0717 444.342 19.2243C444.466 19.3769 444.504 19.5634 444.458 19.7838C444.411 20.0042 444.293 20.1907 444.105 20.3433C443.925 20.4959 443.727 20.5722 443.51 20.5722ZM443.841 21.7039L442.36 28.6722H441.177L442.658 21.7039H443.841ZM449.356 21.5767C450.222 21.5767 450.869 21.8353 451.297 22.3524C451.726 22.861 451.838 23.5986 451.632 24.565L450.759 28.6722H449.589L450.427 24.7303C450.575 24.0351 450.51 23.5053 450.232 23.1408C449.956 22.7678 449.51 22.5813 448.895 22.5813C448.271 22.5813 447.732 22.772 447.279 23.1535C446.833 23.535 446.533 24.0902 446.378 24.8193L445.559 28.6722H444.376L445.858 21.7039H447.041L446.83 22.6957C447.139 22.3397 447.514 22.0642 447.954 21.8692C448.403 21.6742 448.87 21.5767 449.356 21.5767ZM457.135 21.5894C457.751 21.5894 458.26 21.7208 458.664 21.9836C459.076 22.2464 459.352 22.5771 459.493 22.9755L459.763 21.7039H460.959L459.445 28.8248C459.31 29.4606 459.052 30.0243 458.67 30.516C458.286 31.0162 457.805 31.4061 457.225 31.6859C456.655 31.9656 456.027 32.1055 455.342 32.1055C454.406 32.1055 453.672 31.8893 453.14 31.457C452.608 31.0247 452.365 30.4355 452.411 29.6895H453.581C453.621 30.1134 453.817 30.4524 454.17 30.7068C454.522 30.9696 454.984 31.101 455.556 31.101C456.206 31.101 456.777 30.9017 457.269 30.5033C457.769 30.1049 458.096 29.5454 458.249 28.8248L458.56 27.3625C458.24 27.7694 457.821 28.1085 457.304 28.3797C456.787 28.651 456.221 28.7867 455.606 28.7867C454.973 28.7867 454.429 28.6341 453.974 28.3289C453.527 28.0237 453.215 27.5956 453.038 27.0446C452.86 26.4936 452.846 25.8662 452.996 25.1626C453.147 24.4505 453.427 23.8274 453.835 23.2934C454.245 22.7508 454.737 22.3312 455.312 22.0345C455.895 21.7378 456.503 21.5894 457.135 21.5894ZM459.025 25.1753C459.137 24.6497 459.126 24.192 458.992 23.802C458.858 23.4121 458.627 23.1154 458.297 22.9119C457.978 22.7 457.598 22.594 457.156 22.594C456.714 22.594 456.289 22.6957 455.882 22.8992C455.475 23.1026 455.121 23.3993 454.822 23.7893C454.522 24.1793 454.317 24.637 454.205 25.1626C454.091 25.6967 454.101 26.1629 454.233 26.5614C454.366 26.9513 454.593 27.2523 454.912 27.4642C455.232 27.6677 455.614 27.7694 456.056 27.7694C456.498 27.7694 456.922 27.6677 457.33 27.4642C457.747 27.2523 458.106 26.9513 458.406 26.5614C458.707 26.1629 458.913 25.7009 459.025 25.1753Z" fill="#757474"/>
<path d="M382.468 48.4277C383.772 50.1249 385.827 51.2197 388.139 51.2197C389.481 51.2197 390.736 50.8497 391.809 50.208L386.436 75.4863H376.717L382.468 48.4277Z" fill="#0A1E4A"/>
<ellipse cx="388.363" cy="43.3417" rx="5.36328" ry="5.34168" fill="url(#paint1_linear_1378_6931)"/>
<defs>
<linearGradient id="paint0_linear_1378_6931" x1="197.533" y1="7" x2="197.533" y2="42.3676" gradientUnits="userSpaceOnUse">
<stop stop-color="#FF8000"/>
<stop offset="1" stop-color="#FFBD7B"/>
</linearGradient>
<linearGradient id="paint1_linear_1378_6931" x1="388.363" y1="38" x2="387.181" y2="48.6844" gradientUnits="userSpaceOnUse">
<stop stop-color="#2F5EFD"/>
<stop offset="1" stop-color="#0D1B3A"/>
</linearGradient>
</defs>
</svg>
