<svg width="156" height="22" viewBox="0 0 156 22" fill="none" xmlns="http://www.w3.org/2000/svg">
<rect x="0.5" y="0.5" width="155" height="21" rx="3.5" fill="url(#paint0_linear_1365_6399)"/>
<rect x="0.5" y="0.5" width="155" height="21" rx="3.5" stroke="#68D560"/>
<path d="M16.1118 4.22412C16.3268 4.22412 16.5258 4.25761 16.7085 4.32568C16.8913 4.39376 17.0522 4.46984 17.1919 4.55225C17.3316 4.63462 17.439 4.70978 17.5142 4.77783C17.589 4.84556 17.6307 4.8827 17.6382 4.89014L17.7456 4.99756C17.8173 5.08355 17.8947 5.19669 17.9771 5.33643C18.0594 5.47607 18.1346 5.63724 18.2027 5.81982C18.2707 6.00249 18.3042 6.20162 18.3042 6.4165C18.3042 6.63141 18.2564 6.85915 18.1597 7.09912C18.063 7.33915 17.8925 7.5811 17.649 7.82471L16.1158 9.35693C15.7066 9.19575 15.4127 9.00771 15.2408 8.87744L15.2388 8.87646C14.9521 8.6601 14.6028 8.54258 14.2437 8.54248C13.8845 8.54255 13.5343 8.65908 13.2476 8.87549C12.9215 9.12137 12.1734 9.5806 11.0279 9.65381H11.0259C10.6611 9.67779 10.3156 9.82211 10.0435 10.062L9.93216 10.1714C9.68216 10.4381 9.5285 10.7791 9.49368 11.1401L9.48587 11.2964V13.6938C9.49374 14.8138 9.8403 15.8993 10.4712 16.814C10.4758 16.8433 10.4802 16.8726 10.4849 16.9019C10.5243 17.1488 10.5542 17.3409 10.5757 17.4771C10.6044 17.6346 10.5923 17.755 10.5386 17.8374C10.4849 17.9198 10.4111 18.0079 10.3179 18.1011L9.95267 18.4663C9.89535 18.5236 9.79869 18.5021 9.66263 18.4019C9.52656 18.3016 9.41559 18.1296 9.32962 17.8862C9.29379 17.7644 9.21414 17.556 9.09231 17.2622C8.97057 16.9686 8.84166 16.6535 8.7056 16.3169C8.56944 15.9801 8.43485 15.6586 8.30228 15.354C8.16996 15.05 8.07181 14.8228 8.00735 14.6724C7.99318 14.6582 7.98229 14.6436 7.97513 14.6294C7.96796 14.6151 7.95723 14.5998 7.9429 14.5854L7.85696 14.521C7.70653 14.4565 7.47875 14.3586 7.17435 14.2261C6.86989 14.0935 6.54912 13.9589 6.21243 13.8228C5.87566 13.6866 5.55993 13.5578 5.26614 13.436C4.97269 13.3144 4.76498 13.2356 4.6431 13.1997C4.39945 13.1137 4.22682 13.0019 4.12649 12.8657C4.02643 12.7298 4.00481 12.633 4.06204 12.5757L4.42728 12.2104C4.52043 12.1173 4.60854 12.0435 4.69095 11.9897C4.77336 11.936 4.89367 11.924 5.0513 11.9526C5.18744 11.9741 5.37935 12.0041 5.62649 12.0435C5.87366 12.0829 6.12281 12.1209 6.37356 12.1567C6.66719 12.1925 6.97514 12.2355 7.29739 12.2856L9.32962 10.2544C8.1259 9.81017 7.0544 9.40498 6.11575 9.03955C5.71455 8.88194 5.32717 8.72809 4.95462 8.57764C4.58212 8.4272 4.25063 8.28894 3.96048 8.16357C3.67033 8.0382 3.44267 7.93217 3.27786 7.84619C3.11305 7.7602 3.0451 7.70298 3.07376 7.67432L3.71829 7.02979C3.73978 7.0083 3.87946 6.99399 4.13724 6.98682C4.39512 6.97965 4.7267 6.98096 5.13138 6.9917C5.53625 7.00245 5.99369 7.01545 6.50247 7.02979C7.0112 7.04412 7.53085 7.06558 8.06106 7.09424C9.30789 7.15156 10.7093 7.22667 12.2642 7.31982L14.7036 4.87939C14.9473 4.6358 15.1892 4.46538 15.4292 4.36865C15.6692 4.27194 15.8969 4.22412 16.1118 4.22412Z" fill="white"/>
<path d="M14.2441 9.17505C14.4164 9.17505 14.5842 9.23044 14.7217 9.33423C15.171 9.67476 16.1421 10.2599 17.5977 10.3528C17.7968 10.3659 17.9836 10.4543 18.1201 10.5999C18.2568 10.7455 18.3328 10.9382 18.333 11.1379V13.677C18.3243 14.8439 17.9037 15.9706 17.1455 16.8577C16.4022 17.7382 15.4168 18.3223 14.3721 18.5012C14.3292 18.5086 14.2857 18.512 14.2422 18.512C14.1987 18.5119 14.1552 18.5086 14.1123 18.5012C13.0675 18.3222 12.0818 17.7383 11.3379 16.8577C10.5805 15.9703 10.1614 14.8436 10.1533 13.677V11.1379C10.1536 10.9382 10.2296 10.7455 10.3662 10.5999C10.5028 10.4543 10.6895 10.3658 10.8887 10.3528C12.3443 10.2599 13.3152 9.67476 13.7666 9.33423C13.9041 9.23042 14.0719 9.17506 14.2441 9.17505ZM16.5127 12.4573C16.4106 12.4582 16.3128 12.4997 16.2412 12.5725L13.6289 15.2297L12.332 13.8713C12.2616 13.7976 12.1645 13.7547 12.0625 13.7522C11.9604 13.7499 11.861 13.7881 11.7871 13.8586C11.7133 13.9292 11.6703 14.0261 11.668 14.1282C11.6656 14.2303 11.7039 14.3297 11.7744 14.4036L13.3486 16.0481C13.3843 16.0852 13.4274 16.1146 13.4746 16.135C13.5219 16.1554 13.5725 16.1667 13.624 16.1672C13.6753 16.1673 13.7262 16.1568 13.7734 16.137C13.8206 16.1172 13.8636 16.0885 13.8994 16.052L16.79 13.1116C16.8254 13.0755 16.8541 13.0334 16.873 12.9866C16.8919 12.9398 16.9008 12.8896 16.9004 12.8391C16.8999 12.7886 16.8899 12.7382 16.8701 12.6917C16.8504 12.6451 16.8212 12.6031 16.7852 12.5676C16.7492 12.5324 16.7068 12.5045 16.6602 12.4856C16.6134 12.4667 16.5631 12.4569 16.5127 12.4573Z" fill="white"/>
<path d="M26.376 5.808C27.86 5.808 29.05 6.298 29.918 7.306C30.73 8.258 31.15 9.49 31.15 11.016C31.15 12.528 30.73 13.746 29.918 14.698C29.05 15.692 27.86 16.196 26.362 16.196C24.864 16.196 23.688 15.692 22.82 14.698C21.994 13.746 21.588 12.514 21.588 11.016C21.588 9.504 21.994 8.272 22.82 7.32C23.688 6.312 24.864 5.808 26.376 5.808ZM26.376 6.83C25.228 6.83 24.318 7.222 23.66 8.02C23.044 8.776 22.736 9.77 22.736 11.016C22.736 12.248 23.044 13.242 23.66 13.998C24.304 14.782 25.214 15.174 26.362 15.174C27.51 15.174 28.42 14.782 29.064 14.026C29.68 13.27 30.002 12.276 30.002 11.016C30.002 9.742 29.68 8.734 29.064 7.978C28.42 7.208 27.524 6.83 26.376 6.83ZM35.9884 8.566C37.7804 8.566 38.6904 9.56 38.6904 11.548V16H37.5704V11.632C37.5704 10.218 36.9264 9.518 35.6664 9.518C35.1624 9.518 34.7284 9.7 34.3644 10.064C33.9724 10.456 33.7624 10.974 33.7204 11.632V16H32.6004V8.762H33.7204V9.826C33.9724 9.42 34.2944 9.112 34.6864 8.902C35.0784 8.678 35.5124 8.566 35.9884 8.566ZM40.2527 11.898H47.3227V12.85H40.2527V11.898ZM48.2673 6.004H56.4573V6.998H52.9293V16H51.7953V6.998H48.2673V6.004ZM58.4893 6.032C58.7273 6.032 58.9233 6.102 59.0913 6.27C59.2593 6.41 59.3433 6.606 59.3433 6.858C59.3433 7.096 59.2593 7.292 59.0913 7.46C58.9233 7.614 58.7273 7.698 58.4893 7.698C58.2513 7.698 58.0553 7.614 57.8873 7.46C57.7193 7.292 57.6493 7.096 57.6493 6.858C57.6493 6.606 57.7193 6.41 57.8873 6.27C58.0553 6.102 58.2513 6.032 58.4893 6.032ZM57.9293 8.762H59.0493V16H57.9293V8.762ZM64.3113 8.566C65.4173 8.566 66.1733 9.014 66.5793 9.938C66.8593 9.462 67.1953 9.112 67.5873 8.902C67.9373 8.678 68.3573 8.566 68.8613 8.566C69.6173 8.566 70.2193 8.804 70.6953 9.28C71.1433 9.77 71.3813 10.428 71.3813 11.254V16H70.2613V11.436C70.2613 10.792 70.1213 10.316 69.8553 10.008C69.5753 9.672 69.1273 9.518 68.5113 9.518C68.0353 9.518 67.6293 9.686 67.3213 10.05C66.9853 10.414 66.8313 10.876 66.8313 11.464V16H65.7113V11.436C65.7113 10.148 65.1513 9.518 64.0453 9.518C63.5273 9.518 63.1073 9.714 62.7713 10.134C62.4353 10.526 62.2673 11.016 62.2673 11.59V16H61.1473V8.762H62.2673V9.728C62.8133 8.944 63.4993 8.566 64.3113 8.566ZM76.1059 8.566C77.2679 8.566 78.1499 8.958 78.7379 9.742C79.2699 10.442 79.5499 11.436 79.5779 12.696H73.8659C73.9219 13.508 74.1319 14.138 74.5239 14.586C74.9159 15.034 75.4619 15.258 76.1479 15.258C76.7359 15.258 77.2259 15.104 77.5899 14.81C77.8979 14.558 78.1359 14.18 78.3179 13.676H79.4379C79.2699 14.376 78.9479 14.936 78.4579 15.384C77.8559 15.916 77.0859 16.196 76.1479 16.196C75.1119 16.196 74.2719 15.846 73.6559 15.174C73.0119 14.474 72.7039 13.55 72.7039 12.374C72.7039 11.31 72.9979 10.414 73.6139 9.7C74.2299 8.944 75.0559 8.566 76.1059 8.566ZM76.1339 9.504C75.4899 9.504 74.9719 9.714 74.5799 10.134C74.1879 10.554 73.9639 11.114 73.8939 11.828H78.4159C78.2759 10.274 77.5059 9.504 76.1339 9.504ZM89.9616 5.808C91.2076 5.808 92.2016 6.102 92.9436 6.718C93.6436 7.292 94.0776 8.118 94.2596 9.21H93.1116C92.9576 8.454 92.6216 7.88 92.1036 7.474C91.5576 7.04 90.8436 6.83 89.9616 6.83C88.8696 6.83 88.0156 7.208 87.3716 7.978C86.7276 8.734 86.4196 9.756 86.4196 11.044C86.4196 12.304 86.7276 13.298 87.3436 14.026C88.0016 14.796 88.9816 15.188 90.2836 15.188C90.8296 15.188 91.3476 15.104 91.8516 14.964C92.3416 14.824 92.7616 14.628 93.1116 14.404V11.856H89.9756V10.862H94.2456V14.95C93.7696 15.342 93.1816 15.636 92.4956 15.86C91.7676 16.084 90.9976 16.196 90.1716 16.196C88.5896 16.196 87.3576 15.692 86.4896 14.684C85.6776 13.746 85.2716 12.528 85.2716 11.044C85.2716 9.56 85.6636 8.342 86.4756 7.376C87.3296 6.326 88.4916 5.808 89.9616 5.808ZM96.0243 8.762H97.1443V13.186C97.1443 13.872 97.2843 14.39 97.5783 14.726C97.8723 15.062 98.3483 15.244 99.0063 15.244C99.4823 15.244 99.9163 15.048 100.294 14.684C100.686 14.292 100.924 13.788 101.008 13.172V8.762H102.128V16H101.008V14.88C100.42 15.748 99.6363 16.196 98.6562 16.196C96.8923 16.196 96.0243 15.202 96.0243 13.242V8.762ZM107.008 8.566C108.044 8.566 108.8 8.832 109.304 9.378C109.724 9.854 109.948 10.512 109.948 11.352V16H108.898V14.782C108.618 15.174 108.24 15.496 107.792 15.748C107.26 16.042 106.658 16.196 105.986 16.196C105.258 16.196 104.684 16.014 104.25 15.65C103.802 15.272 103.578 14.782 103.578 14.194C103.578 13.368 103.9 12.752 104.572 12.332C105.16 11.94 106 11.73 107.092 11.716L108.828 11.688V11.31C108.828 10.092 108.198 9.49 106.938 9.49C106.406 9.49 105.972 9.588 105.636 9.812C105.258 10.036 105.02 10.386 104.908 10.848L103.802 10.764C103.956 10.008 104.334 9.434 104.922 9.07C105.454 8.734 106.14 8.566 107.008 8.566ZM108.828 12.528L107.162 12.556C105.538 12.584 104.726 13.116 104.726 14.166C104.726 14.502 104.852 14.768 105.132 14.992C105.412 15.202 105.776 15.314 106.224 15.314C106.91 15.314 107.512 15.09 108.044 14.642C108.562 14.208 108.828 13.704 108.828 13.144V12.528ZM114.857 8.566C115.249 8.566 115.585 8.622 115.851 8.734V9.854C115.487 9.742 115.123 9.7 114.773 9.7C114.213 9.7 113.737 9.938 113.359 10.442C112.967 10.918 112.785 11.492 112.785 12.164V16H111.679V8.762H112.785V10.022C112.981 9.602 113.233 9.266 113.541 9.028C113.919 8.72 114.353 8.566 114.857 8.566ZM119.942 8.566C120.978 8.566 121.734 8.832 122.238 9.378C122.658 9.854 122.882 10.512 122.882 11.352V16H121.832V14.782C121.552 15.174 121.174 15.496 120.726 15.748C120.194 16.042 119.592 16.196 118.92 16.196C118.192 16.196 117.618 16.014 117.184 15.65C116.736 15.272 116.512 14.782 116.512 14.194C116.512 13.368 116.834 12.752 117.506 12.332C118.094 11.94 118.934 11.73 120.026 11.716L121.762 11.688V11.31C121.762 10.092 121.132 9.49 119.872 9.49C119.34 9.49 118.906 9.588 118.57 9.812C118.192 10.036 117.954 10.386 117.842 10.848L116.736 10.764C116.89 10.008 117.268 9.434 117.856 9.07C118.388 8.734 119.074 8.566 119.942 8.566ZM121.762 12.528L120.096 12.556C118.472 12.584 117.66 13.116 117.66 14.166C117.66 14.502 117.786 14.768 118.066 14.992C118.346 15.202 118.71 15.314 119.158 15.314C119.844 15.314 120.446 15.09 120.978 14.642C121.496 14.208 121.762 13.704 121.762 13.144V12.528ZM128 8.566C129.792 8.566 130.702 9.56 130.702 11.548V16H129.582V11.632C129.582 10.218 128.938 9.518 127.678 9.518C127.174 9.518 126.74 9.7 126.376 10.064C125.984 10.456 125.774 10.974 125.732 11.632V16H124.612V8.762H125.732V9.826C125.984 9.42 126.306 9.112 126.698 8.902C127.09 8.678 127.524 8.566 128 8.566ZM134.364 6.424V8.762H136.156V9.7H134.364V14.306C134.364 14.572 134.406 14.768 134.518 14.88C134.616 14.992 134.798 15.062 135.05 15.062H135.974V16H134.882C134.294 16 133.86 15.846 133.608 15.538C133.37 15.258 133.258 14.852 133.258 14.306V9.7H131.802V8.762H133.258V6.886L134.364 6.424ZM140.391 8.566C141.553 8.566 142.435 8.958 143.023 9.742C143.555 10.442 143.835 11.436 143.863 12.696H138.151C138.207 13.508 138.417 14.138 138.809 14.586C139.201 15.034 139.747 15.258 140.433 15.258C141.021 15.258 141.511 15.104 141.875 14.81C142.183 14.558 142.421 14.18 142.603 13.676H143.723C143.555 14.376 143.233 14.936 142.743 15.384C142.141 15.916 141.371 16.196 140.433 16.196C139.397 16.196 138.557 15.846 137.941 15.174C137.297 14.474 136.989 13.55 136.989 12.374C136.989 11.31 137.283 10.414 137.899 9.7C138.515 8.944 139.341 8.566 140.391 8.566ZM140.419 9.504C139.775 9.504 139.257 9.714 138.865 10.134C138.473 10.554 138.249 11.114 138.179 11.828H142.701C142.561 10.274 141.791 9.504 140.419 9.504ZM148.157 8.566C149.319 8.566 150.201 8.958 150.789 9.742C151.321 10.442 151.601 11.436 151.629 12.696H145.917C145.973 13.508 146.183 14.138 146.575 14.586C146.967 15.034 147.513 15.258 148.199 15.258C148.787 15.258 149.277 15.104 149.641 14.81C149.949 14.558 150.187 14.18 150.369 13.676H151.489C151.321 14.376 150.999 14.936 150.509 15.384C149.907 15.916 149.137 16.196 148.199 16.196C147.163 16.196 146.323 15.846 145.707 15.174C145.063 14.474 144.755 13.55 144.755 12.374C144.755 11.31 145.049 10.414 145.665 9.7C146.281 8.944 147.107 8.566 148.157 8.566ZM148.185 9.504C147.541 9.504 147.023 9.714 146.631 10.134C146.239 10.554 146.015 11.114 145.945 11.828H150.467C150.327 10.274 149.557 9.504 148.185 9.504Z" fill="white"/>
<defs>
<linearGradient id="paint0_linear_1365_6399" x1="0" y1="11" x2="156" y2="11" gradientUnits="userSpaceOnUse">
<stop stop-color="#1EA812"/>
<stop offset="1" stop-color="#62C55A"/>
</linearGradient>
</defs>
</svg>
