<svg width="307" height="104" viewBox="0 0 307 104" fill="none" xmlns="http://www.w3.org/2000/svg">
<rect x="9" y="8" width="88" height="88" rx="18" fill="#325BE6"/>
<path d="M57.87 43.3635H49.5517C48.4657 43.3635 47.7165 42.2954 48.103 41.2988L56.3686 19.9808C56.4804 19.6924 56.6788 19.4442 56.9374 19.269C57.196 19.0939 57.5027 19 57.8168 19H71.7647C72.8652 19 73.6154 20.0955 73.2 21.0972L68.3872 32.7045H77.4475C78.78 32.7045 79.4909 34.2478 78.612 35.2317L56.3986 60.1023C55.3187 61.3116 53.3166 60.2638 53.7357 58.7088L57.87 43.3635Z" fill="url(#paint0_linear_1371_6750)"/>
<path d="M47.3359 34.9092C40.1698 37.2828 35 44.0377 35 52C35 61.9411 43.0589 70 53 70C62.9411 70 71 61.9411 71 52C71 50.8532 70.8915 49.7317 70.6865 48.6445L78.3389 40.0762C80.0443 43.6941 81 47.7352 81 52C81 57.3239 79.5133 62.3003 76.9336 66.5381C77.2498 66.7516 77.5512 66.9975 77.8311 67.2773L84.75 74.1963C85.9863 75.4329 85.9863 77.4373 84.75 78.6738L80.6738 82.75C79.4372 83.9863 77.4329 83.9863 76.1963 82.75L69.2773 75.8311C69.0705 75.6242 68.8825 75.4051 68.7119 75.1777C64.2318 78.2207 58.824 80 53 80C37.536 80 25 67.464 25 52C25 37.0218 36.7608 24.7897 51.5518 24.0361L47.3359 34.9092Z" fill="white"/>
<ellipse cx="241.866" cy="55.8422" rx="5.86584" ry="5.84221" fill="url(#paint1_linear_1371_6750)"/>
<path d="M153.249 14.5818C155.137 14.5818 156.785 14.8135 158.192 15.2771L157.487 17.1042C156.499 19.6665 158.434 22.3122 161.074 22.3123H161.685L160.45 26.9197C159.712 29.6727 161.809 31.6398 164.04 31.7292C163.989 31.9996 163.936 32.2734 163.877 32.5496C162.68 38.1825 160.582 42.6014 157.584 45.8064C154.586 49.0114 150.588 50.614 145.59 50.614C140.592 50.614 137.276 49.0114 135.641 45.8064C134.038 42.6014 133.835 38.1826 135.032 32.5496C136.216 26.9813 138.307 22.5944 141.305 19.3894C144.303 16.1844 148.285 14.5818 153.249 14.5818ZM151.34 23.5652C149.387 23.5652 147.931 24.3425 146.972 25.8962C146.02 27.4178 145.234 29.6359 144.614 32.5496C143.981 35.5279 143.797 37.7945 144.063 39.3484C144.368 40.8698 145.514 41.6306 147.5 41.6306C149.486 41.6305 150.938 40.8698 151.858 39.3484C152.817 37.7945 153.612 35.5279 154.245 32.5496C154.865 29.6359 155.022 27.4178 154.717 25.8962C154.418 24.3425 153.292 23.5653 151.34 23.5652Z" fill="#0A1E4A"/>
<path d="M125.763 25.508C125.765 24.4073 125.557 23.5979 125.137 23.08C124.718 22.562 123.995 22.303 122.969 22.303C121.414 22.303 120.17 23.0152 119.238 24.4397C118.34 25.8641 117.551 28.0979 116.871 31.1411C117.746 30.1375 118.874 29.3443 120.256 28.7616C121.637 28.1789 123.089 27.8875 124.612 27.8875C127.822 27.8875 130.181 28.8587 131.688 30.8012C133.228 32.7436 133.612 35.5278 132.841 39.1537C132.332 41.5494 131.372 43.6537 129.961 45.4666C128.589 47.2472 126.84 48.6231 124.714 49.5943C122.621 50.5656 120.284 51.0512 117.703 51.0512C112.572 51.0512 109.328 49.4972 107.97 46.3893C106.652 43.249 106.601 38.8138 107.819 33.0836C109.168 26.7382 111.218 22.0764 113.969 19.0979C116.721 16.1195 120.446 14.6303 125.146 14.6303C128.952 14.6303 131.608 15.6825 133.114 17.7868C134.659 19.8587 135.221 22.4325 134.799 25.508H125.763ZM120.66 35.2688C119.502 35.2688 118.473 35.5925 117.574 36.24C116.708 36.8875 116.148 37.8102 115.894 39.008C115.625 40.2706 115.766 41.2418 116.317 41.9217C116.867 42.6015 117.788 42.9415 119.079 42.9415C120.27 42.9415 121.266 42.6177 122.065 41.9702C122.905 41.2904 123.455 40.3353 123.717 39.1051C123.972 37.9073 123.824 36.9684 123.273 36.2886C122.756 35.6087 121.885 35.2688 120.66 35.2688Z" fill="#0A1E4A"/>
<path d="M165.595 19.312H161.074C160.484 19.312 160.076 18.7284 160.286 18.1839L164.779 6.53591C164.84 6.37832 164.947 6.24269 165.088 6.14699C165.229 6.05129 165.395 6.00003 165.566 6H173.147C173.745 6 174.152 6.5986 173.927 7.14588L171.311 13.488H176.235C176.959 13.488 177.346 14.3313 176.868 14.8689L164.795 28.458C164.208 29.1187 163.12 28.5462 163.348 27.6966L165.595 19.312Z" fill="url(#paint2_linear_1371_6750)"/>
<path d="M173.637 50.0312C171.653 50.0312 169.945 49.7119 168.514 49.0734C167.114 48.4092 166.077 47.5152 165.402 46.3913C164.758 45.2418 164.536 43.9519 164.736 42.5215H172.178C172.136 43.2111 172.348 43.7475 172.815 44.1307C173.282 44.5139 173.921 44.7054 174.73 44.7054C175.357 44.7054 175.88 44.5777 176.3 44.3223C176.72 44.0668 176.973 43.7348 177.06 43.3261C177.174 42.7897 176.958 42.3937 176.412 42.1383C175.865 41.8829 174.933 41.6019 173.614 41.2954C172.112 40.9889 170.88 40.644 169.917 40.2609C168.954 39.8777 168.173 39.2519 167.574 38.3834C167.001 37.5149 166.872 36.3399 167.187 34.8584C167.459 33.5812 168.055 32.4318 168.978 31.4101C169.905 30.3628 171.113 29.5326 172.602 28.9196C174.116 28.3065 175.839 28 177.772 28C180.644 28 182.757 28.6897 184.109 30.069C185.461 31.4484 186.028 33.262 185.812 35.5098H178.878C178.894 34.8201 178.692 34.2965 178.272 33.9389C177.883 33.5557 177.284 33.3641 176.475 33.3641C175.848 33.3641 175.341 33.4791 174.952 33.709C174.59 33.9389 174.365 34.2581 174.279 34.6668C174.17 35.1777 174.386 35.5736 174.927 35.8546C175.473 36.1101 176.383 36.3783 177.655 36.6592C179.177 36.9913 180.417 37.3617 181.375 37.7704C182.359 38.1791 183.145 38.8432 183.732 39.7628C184.352 40.6568 184.496 41.8829 184.165 43.441C183.899 44.6927 183.281 45.8166 182.312 46.8128C181.369 47.809 180.143 48.6008 178.634 49.1883C177.157 49.7503 175.491 50.0312 173.637 50.0312Z" fill="#0A1E4A"/>
<path d="M287.049 64.8194C288.714 64.8194 290.091 65.1481 291.178 65.8054C292.295 66.4627 293.07 67.3486 293.506 68.4632L294.216 65.1195H302.806L297.749 88.9112C297.269 91.169 296.4 93.198 295.14 94.9985C293.875 96.8275 292.192 98.2851 290.091 99.371C288.02 100.457 285.567 101 282.733 101C278.935 101 276.081 100.128 274.173 98.3851C272.265 96.6418 271.469 94.2698 271.785 91.269H280.243C280.255 92.0406 280.565 92.6408 281.176 93.0694C281.786 93.4981 282.646 93.7125 283.756 93.7125C286.678 93.7125 288.479 92.1121 289.159 88.9112L289.815 85.8247C288.906 86.9393 287.754 87.8253 286.358 88.4826C284.991 89.1399 283.475 89.4685 281.809 89.4685C279.852 89.4685 278.176 88.9684 276.782 87.9681C275.417 86.9679 274.464 85.539 273.924 83.6813C273.419 81.7951 273.431 79.6089 273.959 77.1225C274.488 74.6362 275.402 72.4642 276.703 70.6066C278.033 68.749 279.593 67.32 281.383 66.3198C283.203 65.3195 285.091 64.8194 287.049 64.8194ZM291.665 77.1225C291.993 75.5793 291.813 74.3647 291.125 73.4787C290.466 72.5928 289.508 72.1498 288.252 72.1498C286.966 72.1498 285.806 72.5928 284.77 73.4787C283.74 74.3361 283.059 75.5507 282.725 77.1225C282.396 78.6658 282.559 79.8947 283.212 80.8092C283.871 81.6951 284.843 82.1381 286.129 82.1381C287.385 82.1381 288.531 81.6951 289.567 80.8092C290.631 79.9232 291.331 78.6944 291.665 77.1225Z" fill="#0A1E4A"/>
<path d="M264.875 64.9051C267.709 64.9051 269.761 65.8339 271.032 67.6915C272.308 69.5206 272.613 72.0069 271.944 75.1506L268.965 89.1684H260.375L263.118 76.2651C263.409 74.8933 263.272 73.8216 262.705 73.05C262.145 72.2498 261.251 71.8497 260.024 71.8497C258.739 71.8497 257.646 72.2498 256.745 73.05C255.851 73.8216 255.258 74.8933 254.966 76.2651L252.223 89.1684H243.633L248.745 65.1194H257.335L256.606 68.5489C257.597 67.4629 258.804 66.5912 260.23 65.9339C261.661 65.248 263.209 64.9051 264.875 64.9051Z" fill="#0A1E4A"/>
<path d="M244.73 65.1194L239.618 89.1684H231.028L236.14 65.1194H244.73Z" fill="#0A1E4A"/>
<path d="M206.442 77.1225C206.971 74.6362 207.958 72.4642 209.405 70.6066C210.852 68.749 212.616 67.32 214.699 66.3198C216.81 65.3195 219.079 64.8194 221.504 64.8194C224.63 64.8194 227.08 65.6625 228.855 67.3486C230.635 69.0062 231.514 71.3353 231.489 74.3361H222.374C222.182 72.7643 221.326 71.9784 219.807 71.9784C218.726 71.9784 217.77 72.4213 216.939 73.3073C216.143 74.1646 215.566 75.4364 215.207 77.1225C214.849 78.8087 214.882 80.0947 215.308 80.9807C215.762 81.8666 216.53 82.3096 217.611 82.3096C219.159 82.3096 220.349 81.5236 221.18 79.9518H230.296C229.05 82.924 227.182 85.2532 224.691 86.9393C222.2 88.6255 219.391 89.4685 216.265 89.4685C213.84 89.4685 211.784 88.9684 210.097 87.9681C208.44 86.9679 207.283 85.539 206.626 83.6813C205.969 81.8237 205.908 79.6375 206.442 77.1225Z" fill="#0A1E4A"/>
<path d="M199.358 69.3634C200.614 67.9916 202.014 66.9056 203.557 66.1054C205.1 65.3052 206.661 64.9051 208.238 64.9051L206.334 73.8645H203.924C202.054 73.8645 200.59 74.2217 199.532 74.9362C198.475 75.6507 197.758 76.8939 197.381 78.6657L195.149 89.1684H186.559L191.671 65.1194H200.26L199.358 69.3634Z" fill="#0A1E4A"/>
<path d="M187.658 65.1194L182.547 89.1684H173.913L174.642 85.739C173.681 86.825 172.484 87.7109 171.053 88.3968C169.628 89.0541 168.082 89.3828 166.417 89.3828C163.554 89.3828 161.484 88.4682 160.207 86.6392C158.966 84.7816 158.682 82.2667 159.357 79.0944L162.327 65.1194H170.873L168.13 78.0227C167.839 79.3945 167.973 80.4805 168.534 81.2807C169.129 82.0523 170.041 82.4381 171.268 82.4381C172.524 82.4381 173.599 82.0523 174.494 81.2807C175.394 80.4805 175.991 79.3945 176.282 78.0227L179.025 65.1194H187.658Z" fill="#0A1E4A"/>
<path d="M141.78 89.4685C139.326 89.4685 137.226 88.9684 135.481 87.9681C133.766 86.9679 132.55 85.539 131.835 83.6813C131.119 81.8237 131.029 79.6375 131.563 77.1225C132.092 74.6362 133.109 72.4642 134.614 70.6066C136.148 68.749 137.986 67.32 140.127 66.3198C142.297 65.3195 144.609 64.8194 147.063 64.8194C149.517 64.8194 151.602 65.3195 153.318 66.3198C155.063 67.32 156.293 68.749 157.009 70.6066C157.753 72.4642 157.861 74.6362 157.333 77.1225C156.804 79.6089 155.77 81.7951 154.23 83.6813C152.724 85.539 150.887 86.9679 148.717 87.9681C146.547 88.9684 144.234 89.4685 141.78 89.4685ZM143.329 82.181C144.527 82.181 145.612 81.7523 146.583 80.8949C147.589 80.009 148.265 78.7515 148.612 77.1225C148.958 75.4935 148.813 74.2504 148.177 73.393C147.571 72.5356 146.683 72.107 145.514 72.107C144.346 72.107 143.276 72.5356 142.305 73.393C141.333 74.2504 140.675 75.4935 140.329 77.1225C139.976 78.7801 140.089 80.0376 140.666 80.8949C141.244 81.7523 142.131 82.181 143.329 82.181Z" fill="#0A1E4A"/>
<path d="M115.699 89.4685C112.105 89.4685 109.33 88.6397 107.374 86.9822C105.425 85.296 104.693 82.8954 105.18 79.7803H114.339C114.202 80.8378 114.36 81.6094 114.812 82.0952C115.263 82.5811 115.928 82.824 116.804 82.824C117.593 82.824 118.275 82.6382 118.851 82.2667C119.462 81.8666 119.84 81.3236 119.986 80.6377C120.174 79.7518 119.897 79.0659 119.152 78.58C118.408 78.0942 117.151 77.5512 115.379 76.951C113.503 76.2937 112 75.665 110.872 75.0649C109.778 74.4361 108.888 73.5359 108.202 72.3642C107.552 71.1639 107.43 69.6063 107.837 67.6915C108.25 65.7482 109.099 64.0906 110.384 62.7189C111.675 61.3185 113.273 60.2611 115.178 59.5466C117.083 58.8321 119.146 58.4749 121.366 58.4749C124.96 58.4749 127.647 59.3037 129.428 60.9613C131.243 62.5902 131.908 64.8908 131.423 67.863H122.088C122.253 66.9485 122.107 66.2626 121.649 65.8054C121.22 65.3481 120.582 65.1195 119.735 65.1195C119.092 65.1195 118.527 65.3052 118.038 65.6767C117.55 66.0483 117.234 66.577 117.088 67.2629C116.966 67.8344 117.079 68.3346 117.426 68.7632C117.809 69.1634 118.302 69.5206 118.908 69.8349C119.519 70.1207 120.433 70.4923 121.651 70.9495C123.469 71.6068 124.936 72.2641 126.053 72.9214C127.205 73.5502 128.109 74.4504 128.765 75.6221C129.457 76.7653 129.615 78.2228 129.238 79.9947C128.856 81.7951 128.045 83.4098 126.806 84.8388C125.597 86.2677 124.028 87.3966 122.098 88.2253C120.198 89.0541 118.065 89.4685 115.699 89.4685Z" fill="#0A1E4A"/>
<defs>
<linearGradient id="paint0_linear_1371_6750" x1="63.5" y1="19" x2="63.5" y2="60.6286" gradientUnits="userSpaceOnUse">
<stop stop-color="#FF8000"/>
<stop offset="1" stop-color="#FFBD7B"/>
</linearGradient>
<linearGradient id="paint1_linear_1371_6750" x1="241.866" y1="50" x2="240.573" y2="61.6856" gradientUnits="userSpaceOnUse">
<stop stop-color="#2F5EFD"/>
<stop offset="1" stop-color="#0D1B3A"/>
</linearGradient>
<linearGradient id="paint2_linear_1371_6750" x1="168.655" y1="6" x2="168.655" y2="28.7455" gradientUnits="userSpaceOnUse">
<stop stop-color="#FF8000"/>
<stop offset="1" stop-color="#FFBD7B"/>
</linearGradient>
</defs>
</svg>
